<svg width="60" height="60" viewBox="0 0 60 60" fill="none" xmlns="http://www.w3.org/2000/svg">
<rect x="5" y="5" width="50" height="50" rx="25" fill="#99EA48"/>
<rect x="5" y="5" width="50" height="50" rx="25" stroke="white" stroke-width="10"/>
<path d="M40.7071 30.7071C41.0976 30.3166 41.0976 29.6834 40.7071 29.2929L34.3431 22.9289C33.9526 22.5384 33.3195 22.5384 32.9289 22.9289C32.5384 23.3195 32.5384 23.9526 32.9289 24.3431L38.5858 30L32.9289 35.6569C32.5384 36.0474 32.5384 36.6805 32.9289 37.0711C33.3195 37.4616 33.9526 37.4616 34.3431 37.0711L40.7071 30.7071ZM20 30V31H40V30V29H20V30Z" fill="#010205"/>
</svg>
