<svg width="248" height="44" viewBox="0 0 248 44" fill="none" xmlns="http://www.w3.org/2000/svg">
<path d="M14.9838 1.26953C17.8857 1.26956 20.3769 1.77909 22.4642 2.76953V2.77246C24.4224 3.70281 25.9462 4.99518 27.0463 6.64258L27.2601 6.97656C28.3714 8.78117 28.9408 10.9337 28.9408 13.46C28.9408 15.8262 28.442 17.835 27.4623 19.5762L27.2592 19.9209C26.2157 21.6262 24.7501 22.9659 22.8519 23.9336L22.4672 24.1211C20.3723 25.102 17.8843 25.6015 14.9779 25.6016H7.52673V35.3711H1.06189V1.26953H14.9838ZM7.52673 20.2471H14.5433C16.9753 20.2471 18.9346 19.6971 20.3207 18.4922L20.5502 18.293V18.2744C21.7898 17.0759 22.3812 15.4397 22.3812 13.4541C22.3812 11.4866 21.8011 9.81224 20.5746 8.60742L20.3207 8.37305C18.9346 7.16803 16.9754 6.6172 14.5433 6.61719H7.52673V20.2471Z" fill="#010205" stroke="#010205" stroke-width="1.32982"/>
<path d="M37.7045 1.26318L46.4769 19.9087L47.0687 21.1675L47.6761 19.9165L56.7338 1.26318H62.8871L49.0336 28.3394C47.7737 30.8026 46.2908 32.6713 44.598 33.9712L44.2562 34.2231C42.4203 35.5294 40.447 36.1733 38.3148 36.1733C36.8198 36.1733 35.2646 35.8632 33.6371 35.2339L35.1478 30.2251C36.2581 30.5461 37.2358 30.7212 38.0736 30.7212C39.1559 30.7212 40.1499 30.4417 41.0306 29.8833C41.9059 29.3283 42.6703 28.4754 43.347 27.3862L43.6244 26.9956L43.8558 26.6675L43.6732 26.3101L30.8832 1.26318H37.7045Z" fill="#010205" stroke="#010205" stroke-width="1.32982"/>
<path d="M96.098 1.27612V30.0242H100.811V42.7039H94.9212V35.366H69.8118V42.7039H63.9241L63.9671 30.0173H64.6761C65.8718 29.9771 66.9002 29.4896 67.7298 28.5896C68.543 27.7074 69.1482 26.4501 69.5804 24.8757C70.4343 21.765 70.9534 17.3718 71.1419 11.7185L71.5062 1.27612H96.098ZM76.845 7.26343L76.6976 12.4177C76.5398 16.6137 76.202 20.1174 75.6985 22.9285L75.6878 22.9861V22.989C75.1788 25.7697 74.4272 27.7245 73.47 28.9421L72.6243 30.0173H89.7259V6.61792H76.8626L76.845 7.26343Z" fill="#010205" stroke="#010205" stroke-width="1.32982"/>
<path d="M113.399 1.26953V15.2363H130.038V1.26953H136.504V35.3652H130.038V20.8438H113.399V35.3652H106.935V1.26953H113.399Z" fill="#010205" stroke="#010205" stroke-width="1.32982"/>
<path d="M169.987 1.26953V6.51855H152.271V15.5381H167.915V20.584H152.271V30.1104H170.609V35.3652H145.853V1.26953H169.987Z" fill="#010205" stroke="#010205" stroke-width="1.32982"/>
<path d="M192.818 1.26953C196.413 1.26956 199.178 1.956 201.182 3.25195L201.573 3.51953C203.567 4.96832 204.574 7.01752 204.574 9.76367C204.574 11.3039 204.231 12.6462 203.562 13.8096L203.425 14.04C202.66 15.2632 201.58 16.2389 200.17 16.96L198.721 17.7012L200.274 18.1865C202.087 18.7529 203.464 19.6353 204.447 20.8184L204.654 21.0938C205.645 22.4099 206.159 24.0523 206.159 26.0566C206.159 28.8246 205.231 30.9724 203.401 32.5596L203.023 32.8691C200.924 34.4977 197.855 35.3594 193.733 35.3594H177.793V1.26953H192.818ZM184.205 30.6221H193.44C195.344 30.6221 196.897 30.2292 197.98 29.3301C199.088 28.4112 199.594 27.0592 199.594 25.4023C199.594 23.7875 199.083 22.4722 197.972 21.582C196.888 20.7145 195.34 20.3369 193.44 20.3369H184.205V30.6221ZM184.211 15.9453H192.143C193.816 15.9452 195.201 15.6116 196.22 14.8613L196.419 14.7061L196.421 14.7041C197.478 13.8178 197.956 12.5401 197.956 10.9795C197.956 9.50175 197.517 8.33193 196.592 7.45312L196.4 7.28125L196.398 7.2793L196.197 7.12012C195.17 6.35386 193.788 6.01276 192.143 6.0127H184.211V15.9453Z" fill="#010205" stroke="#010205" stroke-width="1.32982"/>
<path d="M228.622 0.665039C231.804 0.665071 234.667 1.33716 237.22 2.67676L237.726 2.9541H237.727C240.249 4.38611 242.261 6.32129 243.774 8.7666L244.07 9.2627C245.61 11.9372 246.389 14.95 246.389 18.3174C246.389 21.4746 245.705 24.3209 244.351 26.8682L244.07 27.373C242.623 29.8861 240.674 31.8893 238.223 33.3887L237.727 33.6807C235.042 35.2049 232.016 35.9707 228.622 35.9707C225.44 35.9707 222.571 35.2977 220.002 33.957L219.493 33.6807C216.96 32.2484 214.943 30.3138 213.444 27.8711L213.151 27.376V27.375L212.873 26.8691C211.53 24.3223 210.855 21.476 210.855 18.3174C210.855 15.1587 211.529 12.3125 212.873 9.76562L213.151 9.26074C214.587 6.749 216.53 4.74699 218.993 3.24805L219.493 2.95508C222.19 1.43045 225.228 0.665039 228.622 0.665039ZM228.628 6.31543C226.657 6.31543 224.85 6.76416 223.221 7.66797L222.896 7.85449C221.294 8.81741 220.012 10.1347 219.059 11.7988L218.872 12.1357C217.899 13.965 217.421 16.0313 217.421 18.3174C217.421 20.6035 217.899 22.6697 218.872 24.499C219.842 26.3223 221.18 27.7525 222.896 28.7803V28.7812C224.609 29.8102 226.525 30.3203 228.628 30.3203C230.599 30.3203 232.406 29.8716 234.035 28.9678L234.358 28.7812C235.961 27.8183 237.244 26.5011 238.197 24.8369L238.384 24.499C239.356 22.6697 239.835 20.6035 239.835 18.3174C239.835 16.1744 239.414 14.2249 238.56 12.4824L238.384 12.1357C237.414 10.3121 236.074 8.88126 234.357 7.85352H234.356C232.644 6.82542 230.729 6.31546 228.628 6.31543Z" fill="#010205" stroke="#010205" stroke-width="1.32982"/>
</svg>
