<svg width="28" height="19" viewBox="0 0 28 19" fill="none" xmlns="http://www.w3.org/2000/svg">
<path d="M26.8333 11H1.16667C0.522664 11 0 10.552 0 10C0 9.448 0.522664 9 1.16667 9H26.8333C27.4773 9 28 9.448 28 10C28 10.552 27.4773 11 26.8333 11Z" fill="#202020"/>
<path d="M26.8333 2H1.16667C0.522664 2 0 1.552 0 1C0 0.447998 0.522664 0 1.16667 0H26.8333C27.4773 0 28 0.447998 28 1C28 1.552 27.4773 2 26.8333 2Z" fill="#202020"/>
<path d="M26.8333 19H1.16667C0.522664 19 0 18.552 0 18C0 17.448 0.522664 17 1.16667 17H26.8333C27.4773 17 28 17.448 28 18C28 18.552 27.4773 19 26.8333 19Z" fill="#202020"/>
</svg>
