<svg width="116" height="36" viewBox="0 0 116 36" fill="none" xmlns="http://www.w3.org/2000/svg">
<path fill-rule="evenodd" clip-rule="evenodd" d="M57.455 5.79712C58.5407 4.7111 60.3009 4.7111 61.3866 5.79712C62.4723 6.88323 62.4723 8.64412 61.3866 9.73023L54.7676 16.3518C52.8672 13.8039 53.0736 10.1803 55.3869 7.86613L57.455 5.79712Z" fill="#222222"/>
<path fill-rule="evenodd" clip-rule="evenodd" d="M66.9175 20.7365C68.0034 21.8226 68.0034 23.5835 66.9175 24.6695C65.8325 25.7556 64.072 25.7556 62.9863 24.6695L56.3672 18.0481C58.9141 16.1469 62.5364 16.3534 64.8497 18.6676L66.9175 20.7365Z" fill="#222222"/>
<path fill-rule="evenodd" clip-rule="evenodd" d="M51.9841 30.2028C50.8984 31.2889 49.1382 31.2889 48.0526 30.2028C46.9669 29.1167 46.9669 27.3558 48.0526 26.2697L54.6715 19.6482C56.5719 22.1961 56.3656 25.8197 54.0523 28.1338L51.9841 30.2028Z" fill="#222222"/>
<path fill-rule="evenodd" clip-rule="evenodd" d="M42.5213 15.2634C41.4356 14.1773 41.4356 12.4164 42.5213 11.3303C43.607 10.2442 45.3672 10.2442 46.4529 11.3303L53.072 17.9519C50.5251 19.853 46.9027 19.6465 44.5895 17.3324L42.5213 15.2634Z" fill="#222222"/>
<path fill-rule="evenodd" clip-rule="evenodd" d="M55.9761 29.3918C57.5769 27.6112 58.321 25.3328 58.2081 23.0895L61.3869 26.2696C61.3948 26.2775 61.4028 26.2854 61.4108 26.2933V28.5637C61.4108 30.0996 60.1661 31.3447 58.6308 31.3447C57.3837 31.3447 56.3284 30.5233 55.9761 29.3918Z" fill="#222222"/>
<path fill-rule="evenodd" clip-rule="evenodd" d="M43.3321 19.2567C45.1119 20.8582 47.3895 21.6026 49.6319 21.4897L46.4531 24.6697C46.4451 24.6776 46.4372 24.6856 46.4294 24.6935H44.1599C42.6245 24.6936 41.3799 23.4484 41.3799 21.9124C41.3799 20.6649 42.201 19.6092 43.3321 19.2567Z" fill="#222222"/>
<path fill-rule="evenodd" clip-rule="evenodd" d="M66.1073 16.7433C64.3276 15.1417 62.05 14.3974 59.8076 14.5102L62.9864 11.3303C62.9944 11.3224 63.0022 11.3144 63.0101 11.3064H65.2797C66.8153 11.3064 68.0599 12.5516 68.0599 14.0876C68.0599 15.3351 67.2385 16.3908 66.1073 16.7433Z" fill="#222222"/>
<path fill-rule="evenodd" clip-rule="evenodd" d="M53.4635 6.60809C51.8626 8.38862 51.1186 10.667 51.2314 12.9104L48.0527 9.73032C48.0447 9.72242 48.0368 9.71451 48.0288 9.70661V7.43625C48.0288 5.9003 49.2735 4.65509 50.8088 4.65509C52.0559 4.65509 53.1112 5.47659 53.4635 6.60809Z" fill="#222222"/>
<path fill-rule="evenodd" clip-rule="evenodd" d="M50.8088 2.39246C48.0243 2.39246 45.7669 4.65067 45.7669 7.43629V8.41728C44.0916 7.97941 42.2351 8.41705 40.9223 9.73034C38.9533 11.7001 38.9533 14.8937 40.9223 16.8634L41.6156 17.5571C40.1216 18.4325 39.1182 20.0552 39.1182 21.9124C39.1182 24.698 41.3755 26.9563 44.1601 26.9563H45.1406C44.7029 28.6321 45.1404 30.4894 46.4532 31.8026C48.4222 33.7724 51.6146 33.7724 53.5836 31.8026L55.6517 29.7337C57.4762 27.9086 58.3283 25.4791 58.208 23.0895L61.3869 26.2695C63.3559 28.2393 66.5484 28.2393 68.5175 26.2695C70.4866 24.2998 70.4866 21.1062 68.5175 19.1365L67.8244 18.443C69.3178 17.5675 70.3215 15.9448 70.3215 14.0876C70.3215 11.302 68.0637 9.04376 65.2795 9.04376H64.2989C64.7366 7.36781 64.2991 5.51053 62.9863 4.19723C61.0174 2.22748 57.825 2.22748 55.856 4.19723L53.7878 6.26621C51.9634 8.09133 51.1113 10.5208 51.2315 12.9104L48.0526 9.73034C48.0447 9.72244 48.0368 9.71454 48.0288 9.70663V7.43629C48.0288 5.90034 49.2734 4.65521 50.8088 4.65521C52.0559 4.65521 53.1112 5.47664 53.4635 6.60813C53.568 6.492 53.6761 6.37797 53.7878 6.26621L55.1625 4.89086C54.2874 3.39623 52.6653 2.39246 50.8088 2.39246ZM63.01 11.3065C63.0021 11.3144 62.9943 11.3224 62.9863 11.3303L59.8075 14.5103C62.05 14.3974 64.3275 15.1417 66.1072 16.7433C67.2384 16.3908 68.0598 15.3351 68.0598 14.0876C68.0598 12.5516 66.8152 11.3065 65.2795 11.3065H63.01ZM46.4294 24.6935C46.4373 24.6855 46.4452 24.6775 46.4532 24.6696L49.632 21.4896C47.3896 21.6025 45.1121 20.8582 43.3322 19.2567C42.2012 19.6092 41.38 20.6649 41.38 21.9124C41.38 23.4484 42.6247 24.6935 44.1601 24.6935H46.4294ZM58.6308 33.6076C56.7742 33.6076 55.1521 32.6037 54.277 31.1091L55.6517 29.7337C55.7635 29.622 55.8716 29.508 55.976 29.3918C56.3283 30.5233 57.3836 31.3448 58.6308 31.3448C60.1661 31.3448 61.4108 30.0997 61.4108 28.5637V26.2934C62.0623 26.9366 62.8454 27.3664 63.6727 27.5827V28.5637C63.6727 31.3494 61.4153 33.6076 58.6308 33.6076ZM61.3869 5.7972C60.3012 4.71117 58.541 4.71117 57.4553 5.7972L55.3871 7.86617C53.0739 10.1803 52.8675 13.804 54.7679 16.3518L61.3869 9.73027C62.4726 8.64416 62.4726 6.8833 61.3869 5.7972ZM66.9177 24.6696C68.0035 23.5835 68.0035 21.8226 66.9177 20.7365L64.8497 18.6675C62.5365 16.3534 58.9141 16.1469 56.3672 18.048L62.9863 24.6696C64.072 25.7557 65.8326 25.7557 66.9177 24.6696ZM51.9842 30.2027C50.8985 31.2888 49.1383 31.2888 48.0526 30.2027C46.967 29.1166 46.967 27.3557 48.0526 26.2696L54.6716 19.648C56.572 22.1959 56.3656 25.8196 54.0524 28.1337L51.9842 30.2027ZM42.5216 11.3303C41.436 12.4164 41.436 14.1773 42.5216 15.2634L44.5898 17.3324C46.9031 19.6465 50.5254 19.853 53.0723 17.9519L46.4532 11.3303C45.3675 10.2443 43.6073 10.2443 42.5216 11.3303Z" fill="#222222"/>
<path d="M1.79932 12.592H4.27189V20.2782H8.51859V22.3604H1.79932V12.592Z" fill="#222222"/>
<path d="M13.008 22.5701C12.1792 22.5701 11.4527 22.421 10.8288 22.1229C10.2048 21.8154 9.72053 21.3962 9.37592 20.8652C9.0407 20.3248 8.87305 19.7053 8.87305 19.0065C8.87305 18.3077 9.0407 17.6929 9.37592 17.1619C9.72053 16.6215 10.2048 16.2022 10.8288 15.9041C11.4527 15.5966 12.1792 15.4429 13.008 15.4429C13.8369 15.4429 14.5633 15.5966 15.1873 15.9041C15.8112 16.2022 16.2909 16.6215 16.6261 17.1619C16.9707 17.6929 17.143 18.3077 17.143 19.0065C17.143 19.7053 16.9707 20.3248 16.6261 20.8652C16.2909 21.3962 15.8112 21.8154 15.1873 22.1229C14.5633 22.421 13.8369 22.5701 13.008 22.5701ZM13.008 20.6555C13.5016 20.6555 13.8928 20.5111 14.1814 20.2223C14.4795 19.9241 14.6284 19.5189 14.6284 19.0065C14.6284 18.4941 14.4795 18.0935 14.1814 17.8047C13.8928 17.5065 13.5016 17.3575 13.008 17.3575C12.5144 17.3575 12.1186 17.5065 11.8206 17.8047C11.5319 18.0935 11.3876 18.4941 11.3876 19.0065C11.3876 19.5189 11.5319 19.9241 11.8206 20.2223C12.1186 20.5111 12.5144 20.6555 13.008 20.6555Z" fill="#222222"/>
<path d="M21.7609 25.5747C21.3138 25.5747 20.8621 25.5327 20.4058 25.4489C19.9588 25.365 19.5723 25.2532 19.2464 25.1135V23.4086C19.982 23.7253 20.8202 23.8837 21.7609 23.8837C22.4407 23.8837 22.9296 23.7439 23.2276 23.4644C23.535 23.185 23.6886 22.775 23.6886 22.2346V21.8294C23.4186 22.0623 23.0833 22.244 22.6828 22.3744C22.2917 22.5049 21.8726 22.5701 21.4256 22.5701C20.7178 22.5701 20.0938 22.421 19.5536 22.1229C19.0135 21.8247 18.5898 21.4055 18.2825 20.8652C17.9844 20.3248 17.8354 19.7053 17.8354 19.0065C17.8354 18.2984 17.9844 17.6742 18.2825 17.1339C18.5804 16.5935 18.9995 16.1789 19.5397 15.8901C20.0798 15.592 20.6992 15.4429 21.3976 15.4429C22.3569 15.4429 23.1485 15.7364 23.7724 16.3234V15.6525H26.1473V21.8993C26.1473 23.0638 25.7887 23.9676 25.0716 24.6104C24.3639 25.2532 23.2602 25.5747 21.7609 25.5747ZM22.0402 20.6695C22.4221 20.6695 22.762 20.5717 23.06 20.376C23.358 20.1804 23.5675 19.9195 23.6886 19.5934V18.4196C23.5582 18.0935 23.344 17.8372 23.046 17.6509C22.748 17.4553 22.4128 17.3575 22.0402 17.3575C21.5374 17.3575 21.1322 17.5065 20.8249 17.8047C20.5175 18.0935 20.3639 18.4894 20.3639 18.9925C20.3639 19.5049 20.5175 19.9148 20.8249 20.2223C21.1322 20.5204 21.5374 20.6695 22.0402 20.6695Z" fill="#222222"/>
<path d="M30.906 22.5701C30.0771 22.5701 29.3508 22.421 28.7268 22.1229C28.1028 21.8154 27.6185 21.3962 27.2739 20.8652C26.9386 20.3248 26.771 19.7053 26.771 19.0065C26.771 18.3077 26.9386 17.6929 27.2739 17.1619C27.6185 16.6215 28.1028 16.2022 28.7268 15.9041C29.3508 15.5966 30.0771 15.4429 30.906 15.4429C31.7348 15.4429 32.4612 15.5966 33.0852 15.9041C33.7092 16.2022 34.1888 16.6215 34.5241 17.1619C34.8686 17.6929 35.041 18.3077 35.041 19.0065C35.041 19.7053 34.8686 20.3248 34.5241 20.8652C34.1888 21.3962 33.7092 21.8154 33.0852 22.1229C32.4612 22.421 31.7348 22.5701 30.906 22.5701ZM30.906 20.6555C31.3995 20.6555 31.7907 20.5111 32.0795 20.2223C32.3774 19.9241 32.5265 19.5189 32.5265 19.0065C32.5265 18.4941 32.3774 18.0935 32.0795 17.8047C31.7907 17.5065 31.3995 17.3575 30.906 17.3575C30.4124 17.3575 30.0166 17.5065 29.7186 17.8047C29.4298 18.0935 29.2855 18.4941 29.2855 19.0065C29.2855 19.5189 29.4298 19.9241 29.7186 20.2223C30.0166 20.5111 30.4124 20.6555 30.906 20.6555Z" fill="#222222"/>
<path d="M74.4756 12.592H76.9485V22.3604H74.4756V12.592Z" fill="#222222"/>
<path d="M78.2002 15.6525H80.5752V16.3234C81.1987 15.7364 81.9904 15.4429 82.9495 15.4429C83.6481 15.4429 84.2677 15.592 84.8075 15.8901C85.3481 16.1789 85.7666 16.5935 86.0647 17.1339C86.3628 17.6649 86.5122 18.2845 86.5122 18.9925C86.5122 19.6912 86.3628 20.3155 86.0647 20.8652C85.7666 21.4055 85.3481 21.8247 84.8075 22.1229C84.2771 22.421 83.6575 22.5701 82.9495 22.5701C82.5028 22.5701 82.0741 22.5002 81.665 22.3604C81.2644 22.23 80.9288 22.0483 80.6589 21.8154V25.4209H78.2002V15.6525ZM82.3073 20.6555C82.8103 20.6555 83.2155 20.5065 83.5222 20.2083C83.8296 19.9102 83.9838 19.5049 83.9838 18.9925C83.9838 18.4801 83.8296 18.0795 83.5222 17.7907C83.2155 17.4926 82.8103 17.3435 82.3073 17.3435C81.9349 17.3435 81.5993 17.4413 81.3012 17.637C81.0031 17.8233 80.7896 18.0795 80.6589 18.4056V19.5934C80.7896 19.9195 81.0031 20.1804 81.3012 20.376C81.5993 20.5624 81.9349 20.6555 82.3073 20.6555Z" fill="#222222"/>
<path d="M90.1771 22.5701C89.6373 22.5701 89.074 22.5142 88.4873 22.4024C87.9005 22.2999 87.4343 22.1508 87.0901 21.9552V20.1524C87.4718 20.376 87.9279 20.5624 88.4591 20.7115C88.9989 20.8511 89.4925 20.921 89.94 20.921C90.2655 20.921 90.5033 20.8977 90.6519 20.8512C90.8014 20.8046 90.8757 20.7115 90.8757 20.5717C90.8757 20.4598 90.8248 20.3713 90.7223 20.3061C90.6292 20.2316 90.4517 20.1571 90.1911 20.0825C89.94 19.9987 89.6467 19.9102 89.311 19.817C88.7431 19.6493 88.2964 19.477 87.9702 19.2999C87.6439 19.1229 87.4022 18.8993 87.2434 18.6292C87.0854 18.359 87.0063 18.019 87.0063 17.609C87.0063 16.8823 87.2903 16.342 87.8583 15.9879C88.4356 15.6246 89.2226 15.4429 90.2193 15.4429C90.7036 15.4429 91.2113 15.4942 91.7417 15.5966C92.2823 15.6992 92.6867 15.8342 92.9574 16.0019V17.7768C92.6781 17.5904 92.305 17.4366 91.8395 17.3156C91.3834 17.1944 90.9547 17.1339 90.5541 17.1339C90.2381 17.1339 89.9909 17.1665 89.8141 17.2317C89.6373 17.2876 89.5489 17.3901 89.5489 17.5392C89.5489 17.6789 89.6373 17.7861 89.8141 17.8606C89.9909 17.9351 90.3077 18.0283 90.7638 18.14C91.0619 18.2146 91.1878 18.2472 91.1409 18.2379C91.737 18.3963 92.1978 18.5733 92.524 18.7689C92.8502 18.9646 93.0779 19.1975 93.2085 19.4677C93.3486 19.7285 93.4182 20.0639 93.4182 20.4739C93.4182 21.1167 93.1389 21.6291 92.5803 22.0111C92.0304 22.3837 91.2293 22.5701 90.1771 22.5701Z" fill="#222222"/>
<path d="M97.0892 22.57C96.1676 22.57 95.4737 22.3138 95.0083 21.8014C94.5522 21.289 94.3237 20.6136 94.3237 19.7751V15.6525H96.7825V19.4955C96.7825 20.2688 97.1315 20.6554 97.8301 20.6554C98.1469 20.6554 98.4356 20.5809 98.6961 20.4319C98.9566 20.2828 99.1709 20.0639 99.3384 19.7751V15.6525H101.797V22.3604H99.4228V21.6337C99.1342 21.9411 98.7845 22.174 98.3745 22.3324C97.9654 22.4908 97.5367 22.57 97.0892 22.57Z" fill="#222222"/>
<path d="M103.056 15.6525H105.333V16.3792C105.612 16.0812 105.934 15.8529 106.297 15.6945C106.66 15.5268 107.046 15.4429 107.456 15.4429C107.959 15.4429 108.36 15.5174 108.658 15.6665C108.965 15.8156 109.212 16.0392 109.398 16.3373C109.677 16.0578 110.017 15.8389 110.418 15.6805C110.819 15.5221 111.224 15.4429 111.633 15.4429C112.518 15.4429 113.147 15.6712 113.519 16.1277C113.891 16.5749 114.078 17.2223 114.078 18.0701V22.3604H111.731V18.4196C111.731 18.0469 111.661 17.7768 111.521 17.609C111.382 17.4413 111.149 17.3575 110.823 17.3575C110.404 17.3575 110.064 17.5065 109.803 17.8047C109.813 17.963 109.817 18.2053 109.817 18.5313V22.3604H107.47V18.3218C107.47 17.977 107.41 17.7301 107.289 17.5811C107.168 17.432 106.953 17.3575 106.646 17.3575C106.171 17.3575 105.762 17.623 105.417 18.154V22.3604H103.056V15.6525Z" fill="#222222"/>
</svg>
