<svg width="137" height="36" viewBox="0 0 137 36" fill="none" xmlns="http://www.w3.org/2000/svg">
<path d="M31.6451 12.6C32.016 12.6 32.1396 12.7337 32.1396 13.0937V21.24H36.3329C36.6935 21.24 36.8275 21.3737 36.8275 21.7337V22.4537C36.8275 22.8137 36.6935 22.9474 36.3329 22.9474H30.8105C30.4499 22.9474 30.3057 22.8137 30.3057 22.4537V13.0937C30.3057 12.7337 30.4499 12.6 30.8105 12.6H31.6451Z" fill="#222222"/>
<path d="M40.4849 16.1897C40.4849 13.8137 41.9891 12.384 44.6061 12.384C47.223 12.384 48.7273 13.8137 48.7273 16.1897V19.3577C48.7273 21.7337 47.2127 23.1634 44.6061 23.1634C41.9994 23.1634 40.4849 21.7337 40.4849 19.3577V16.1897ZM46.9964 16.1897C46.9964 14.8525 46.1618 14.1325 44.6576 14.1325C43.1534 14.1325 42.3291 14.8628 42.3291 16.1897V19.3783C42.3291 20.7257 43.1534 21.4354 44.6576 21.4354C46.1618 21.4354 46.9964 20.6948 46.9964 19.3783V16.1897Z" fill="#222222"/>
<path d="M60.9982 17.28C61.4 17.28 61.4927 17.4137 61.4927 17.7737V19.728C61.5036 20.1883 61.4112 20.6453 61.2223 21.0652C61.0332 21.4853 60.7526 21.8577 60.4006 22.1554C59.5266 22.8502 58.4246 23.1949 57.3097 23.1223C54.6412 23.1223 53.1885 21.6925 53.1885 19.3165V16.128C53.1885 13.7828 54.6927 12.3428 57.3097 12.3428C59.3703 12.3428 60.7097 13.1554 61.2764 14.7805C61.3081 14.8416 61.3251 14.9092 61.326 14.9779C61.3269 15.0467 61.3118 15.1148 61.2818 15.1767C61.2518 15.2386 61.2077 15.2927 61.1531 15.3346C61.0985 15.3765 61.0349 15.4052 60.9673 15.4183L60.1636 15.696C59.8133 15.8194 59.6691 15.7474 59.5454 15.3874C59.3747 14.9481 59.0622 14.578 58.6573 14.3359C58.2524 14.0938 57.7783 13.9932 57.3097 14.0503C55.7951 14.0503 54.9709 14.7805 54.9709 16.1074V19.3783C54.9709 20.7257 55.8054 21.4354 57.3097 21.4354C58.8139 21.4354 59.7412 20.7463 59.7412 19.7383V18.9771H57.5054C57.1345 18.9771 57.0006 18.8331 57.0006 18.4731V17.7737C57.0006 17.4137 57.1345 17.28 57.5054 17.28H60.9982Z" fill="#222222"/>
<path d="M65.748 16.1897C65.748 13.8137 67.2523 12.384 69.8693 12.384C72.4862 12.384 73.9905 13.8137 73.9905 16.1897V19.3577C73.9905 21.7337 72.4759 23.1634 69.8693 23.1634C67.2626 23.1634 65.748 21.7337 65.748 19.3577V16.1897ZM72.2493 16.1897C72.2493 14.8525 71.4147 14.1325 69.9208 14.1325C68.4268 14.1325 67.582 14.8628 67.582 16.1897V19.3783C67.582 20.7257 68.4165 21.4354 69.9208 21.4354C71.425 21.4354 72.2493 20.6948 72.2493 19.3783V16.1897Z" fill="#222222"/>
<path d="M78.8433 12.8983C78.8433 12.672 78.9154 12.6 79.1421 12.6H79.616C79.8427 12.6 79.8942 12.672 79.8942 12.8983V22.6491C79.8942 22.8754 79.8942 22.9474 79.616 22.9474H79.1421C78.9154 22.9474 78.8433 22.8754 78.8433 22.6491V12.8983Z" fill="#222222"/>
<path d="M89.28 12.6C90.138 12.6 90.9608 12.9402 91.5676 13.546C92.1743 14.1516 92.5151 14.9731 92.5151 15.8297C92.5151 16.6863 92.1743 17.5078 91.5676 18.1134C90.9608 18.7192 90.138 19.0594 89.28 19.0594H86.1891V22.6491C86.1891 22.8754 86.1376 22.9474 85.9212 22.9474H85.437C85.2206 22.9474 85.1382 22.8754 85.1382 22.6491V12.8983C85.1382 12.672 85.2206 12.6 85.437 12.6H89.28ZM89.1873 18.0411C89.4823 18.0411 89.7743 17.9831 90.0469 17.8705C90.3193 17.7577 90.5669 17.5926 90.7755 17.3844C90.984 17.1762 91.1495 16.9289 91.2624 16.657C91.3752 16.3849 91.4333 16.0933 91.4333 15.7988C91.4333 15.5044 91.3752 15.2128 91.2624 14.9407C91.1495 14.6687 90.984 14.4215 90.7755 14.2133C90.5669 14.0051 90.3193 13.8399 90.0469 13.7272C89.7743 13.6146 89.4823 13.5565 89.1873 13.5565H86.0964V18.0411H89.1873Z" fill="#222222"/>
<path d="M100.562 12.3943C101.357 12.3067 102.16 12.4775 102.85 12.8814C103.54 13.2854 104.082 13.9009 104.395 14.6366C104.477 14.8012 104.395 14.9349 104.23 15.0172L103.776 15.2229C103.591 15.2949 103.519 15.2846 103.405 15.0892C103.172 14.5432 102.771 14.0855 102.259 13.7822C101.748 13.479 101.154 13.3459 100.562 13.4023C98.8206 13.4023 97.8727 14.0914 97.8727 15.3257C97.8626 15.7029 97.9894 16.0711 98.23 16.3622C98.4705 16.6533 98.8083 16.8478 99.1812 16.9097C99.7353 17.0901 100.31 17.2007 100.891 17.2389C101.595 17.2763 102.29 17.4185 102.952 17.6606C103.46 17.8209 103.897 18.1507 104.189 18.5946C104.482 19.0386 104.613 19.5695 104.559 20.0983C104.559 22.0217 103.158 23.184 100.582 23.184C99.7375 23.2805 98.8851 23.0851 98.167 22.6302C97.449 22.1755 96.9087 21.4887 96.6363 20.6846C96.6181 20.648 96.6083 20.6077 96.6075 20.5668C96.6067 20.5259 96.615 20.4853 96.6317 20.448C96.6484 20.4107 96.6732 20.3774 96.7043 20.3508C96.7353 20.3241 96.7719 20.3046 96.8115 20.2937L97.2648 20.1292C97.3005 20.1145 97.3389 20.1076 97.3774 20.1086C97.416 20.1096 97.4539 20.1187 97.4888 20.1351C97.5236 20.1516 97.5547 20.175 97.58 20.2041C97.6053 20.2332 97.6243 20.2672 97.6357 20.304C97.8662 20.885 98.2761 21.3777 98.8058 21.7107C99.3356 22.0435 99.9579 22.1994 100.582 22.1554C102.53 22.1554 103.488 21.4766 103.488 20.0983C103.506 19.736 103.395 19.379 103.174 19.0908C102.953 18.8027 102.637 18.602 102.282 18.5246C101.749 18.3659 101.2 18.2692 100.644 18.2366L99.5315 18.0926C99.1832 18.0188 98.8393 17.9261 98.5012 17.8149C98.1672 17.7142 97.8558 17.55 97.5842 17.3314C97.3109 17.0844 97.0954 16.7803 96.9529 16.4408C96.8106 16.1013 96.7446 15.7347 96.76 15.3669C96.8321 13.5669 98.1818 12.3943 100.562 12.3943Z" fill="#222222"/>
<path d="M110.113 19.4297C110.156 20.1571 110.477 20.8404 111.008 21.34C111.54 21.8395 112.243 22.1177 112.972 22.1177C113.702 22.1177 114.404 21.8395 114.936 21.34C115.467 20.8404 115.787 20.1571 115.831 19.4297V12.8983C115.831 12.672 115.903 12.6 116.13 12.6H116.604C116.831 12.6 116.903 12.672 116.903 12.8983V19.4194C116.903 21.7543 115.522 23.1634 112.977 23.1634C110.432 23.1634 109.052 21.7543 109.052 19.4194V12.8983C109.052 12.672 109.124 12.6 109.34 12.6H109.824C110.041 12.6 110.113 12.672 110.113 12.8983V19.4297Z" fill="#222222"/>
<path d="M131.121 12.6C131.348 12.6 131.42 12.672 131.42 12.8983V22.6492C131.42 22.8755 131.348 22.9474 131.121 22.9474H130.688C130.472 22.9474 130.4 22.8755 130.4 22.6492V16.7143C130.4 15.8508 130.459 14.9883 130.575 14.1326H130.513C130.192 14.915 129.816 15.6745 129.39 16.4057L127.175 20.304C127.148 20.3717 127.101 20.4295 127.04 20.4699C126.979 20.5103 126.908 20.5313 126.835 20.5303H126.546C126.472 20.5307 126.4 20.5094 126.337 20.4693C126.276 20.4291 126.226 20.3717 126.196 20.304L123.95 16.3646C123.551 15.6439 123.207 14.8944 122.92 14.1223H122.858C122.963 14.9858 123.019 15.8547 123.023 16.7246V22.6492C123.023 22.8755 122.951 22.9474 122.724 22.9474H122.322C122.096 22.9474 122.023 22.8755 122.023 22.6492V12.8983C122.023 12.672 122.096 12.6 122.322 12.6H122.693C122.778 12.5922 122.863 12.6106 122.936 12.653C123.01 12.6954 123.069 12.7596 123.105 12.8366L126.711 19.2343L130.297 12.8983C130.41 12.6823 130.472 12.6515 130.699 12.6515L131.121 12.6Z" fill="#222222"/>
<path d="M13.3158 21.384V28.8205C13.3158 29.1057 13.2024 29.3791 13.0005 29.5806C12.7986 29.7822 12.5248 29.8954 12.2392 29.8954C11.9537 29.8954 11.6798 29.7822 11.4779 29.5806C11.2759 29.3791 11.1625 29.1057 11.1625 28.8205V21.3943C11.4623 21.6128 11.8217 21.7348 12.1928 21.744C12.5973 21.7555 12.9937 21.6285 13.3158 21.384ZM22.4855 19.2343C22.2123 19.2343 21.9502 19.3427 21.757 19.5355C21.5638 19.7284 21.4552 19.9901 21.4552 20.2628V21.5588C21.4552 21.844 21.5687 22.1173 21.7706 22.3188C21.9724 22.5204 22.2463 22.6337 22.5319 22.6337C22.8175 22.6337 23.0914 22.5204 23.2932 22.3188C23.4951 22.1173 23.6086 21.844 23.6086 21.5588V20.3143C23.6166 20.1668 23.5927 20.0193 23.5385 19.8819C23.4843 19.7444 23.4012 19.6202 23.2945 19.5177C23.188 19.4153 23.0605 19.3369 22.921 19.288C22.7814 19.2391 22.6329 19.2208 22.4855 19.2343ZM8.82371 24.2023C8.45298 24.1912 8.09408 24.0694 7.79341 23.8526V31.3097C7.79341 31.5961 7.90738 31.8709 8.11027 32.0734C8.31315 32.2759 8.58831 32.3897 8.87523 32.3897C9.16215 32.3897 9.43731 32.2759 9.64019 32.0734C9.84308 31.8709 9.95705 31.5961 9.95705 31.3097V23.904C9.6206 24.1211 9.22364 24.2256 8.82371 24.2023ZM19.1267 17.0023C18.9871 16.9953 18.8476 17.0168 18.7166 17.0653C18.5856 17.1139 18.4659 17.1885 18.3646 17.2847C18.2635 17.381 18.183 17.4967 18.128 17.625C18.0731 17.7532 18.0447 17.8914 18.0449 18.0308V23.76C18.0449 24.0464 18.1589 24.3212 18.3617 24.5237C18.5647 24.7262 18.8398 24.84 19.1267 24.84C19.4137 24.84 19.6889 24.7262 19.8917 24.5237C20.0946 24.3212 20.2086 24.0464 20.2086 23.76V18.1028C20.2168 17.9544 20.1927 17.806 20.1379 17.6677C20.0831 17.5295 19.999 17.4047 19.8912 17.3021C19.7835 17.1994 19.6548 17.1213 19.5139 17.0731C19.3731 17.0249 19.2234 17.0077 19.0752 17.0228L19.1267 17.0023ZM15.7061 19.2034C15.318 19.2007 14.9403 19.0786 14.6243 18.8537V26.3314C14.6243 26.6179 14.7383 26.8926 14.9411 27.0951C15.1441 27.2976 15.4192 27.4114 15.7061 27.4114C15.9931 27.4114 16.2682 27.2976 16.4711 27.0951C16.674 26.8926 16.788 26.6179 16.788 26.3314V18.864C16.4611 19.107 16.0621 19.2337 15.6546 19.224L15.7061 19.2034ZM6.48493 24.9325V4.04226C6.48222 3.78762 6.37898 3.54434 6.19765 3.36524C6.01631 3.18613 5.77152 3.08568 5.51644 3.08569H5.28977C5.03469 3.08568 4.7899 3.18613 4.60857 3.36524C4.42724 3.54434 4.324 3.78762 4.32129 4.04226V24.9325C4.32129 25.189 4.42333 25.4349 4.60495 25.6162C4.78657 25.7976 5.03292 25.8994 5.28977 25.8994H5.51644C5.77331 25.8994 6.01964 25.7976 6.20126 25.6162C6.38289 25.4349 6.48493 25.189 6.48493 24.9325ZM8.93705 23.4103H8.71038C8.45353 23.4103 8.20718 23.3084 8.02556 23.1271C7.84394 22.9458 7.7419 22.6998 7.7419 22.4434V6.53141C7.74462 6.27677 7.84784 6.03348 8.02918 5.85438C8.21051 5.67528 8.4553 5.57483 8.71038 5.57484H8.93705C9.19213 5.57483 9.43692 5.67528 9.61825 5.85438C9.79959 6.03348 9.90282 6.27677 9.90553 6.53141V22.464C9.90553 22.7204 9.80349 22.9663 9.62187 23.1477C9.44025 23.329 9.1939 23.4308 8.93705 23.4308V23.4103ZM12.3474 20.9623H12.1104C11.8563 20.9623 11.6125 20.8615 11.4329 20.6821C11.2532 20.5027 11.1522 20.2594 11.1522 20.0057V8.99998C11.1509 8.8735 11.1747 8.748 11.2222 8.63075C11.2697 8.51351 11.34 8.40684 11.4291 8.31693C11.5183 8.22701 11.6244 8.15562 11.7413 8.10691C11.8583 8.0582 11.9837 8.03311 12.1104 8.03312H12.3474C12.6025 8.03584 12.8461 8.13889 13.0255 8.31992C13.205 8.50095 13.3055 8.74533 13.3055 8.99998V20.0057C13.3055 20.2594 13.2046 20.5027 13.0249 20.6821C12.8452 20.8615 12.6015 20.9623 12.3474 20.9623ZM15.7577 18.4423H15.5413C15.2862 18.4423 15.0414 18.3419 14.8601 18.1627C14.6787 17.9836 14.5755 17.7404 14.5728 17.4857V11.5611C14.5644 11.4291 14.5831 11.2967 14.628 11.1721C14.6728 11.0477 14.7429 10.9336 14.8337 10.8372C14.9244 10.7407 15.0341 10.664 15.1559 10.6115C15.2775 10.5592 15.4087 10.5322 15.5413 10.5325H15.768C16.0248 10.5325 16.2712 10.6344 16.4528 10.8157C16.6344 10.9971 16.7364 11.243 16.7364 11.4994V17.4651C16.7378 17.593 16.7138 17.7198 16.6657 17.8383C16.6176 17.9568 16.5466 18.0646 16.4564 18.1555C16.3664 18.2463 16.2592 18.3184 16.1409 18.3677C16.0228 18.417 15.896 18.4423 15.768 18.4423H15.7577ZM19.1783 16.2308H18.9516C18.6947 16.2308 18.4484 16.129 18.2668 15.9477C18.0851 15.7663 17.9831 15.5204 17.9831 15.264V13.7314C17.9858 13.4767 18.089 13.2335 18.2704 13.0544C18.4517 12.8752 18.6965 12.7748 18.9516 12.7748H19.1783C19.4334 12.7748 19.6782 12.8752 19.8595 13.0544C20.0408 13.2335 20.1441 13.4767 20.1467 13.7314V15.264C20.1467 15.5187 20.0462 15.763 19.8667 15.9441C19.6873 16.1251 19.4437 16.2282 19.1886 16.2308H19.1783Z" fill="#222222"/>
</svg>
