<svg width="17" height="16" viewBox="0 0 17 16" fill="none" xmlns="http://www.w3.org/2000/svg">
<path d="M6.21729 3.5C6.61511 3.5 6.99664 3.65804 7.27795 3.93934C7.55925 4.22064 7.71729 4.60218 7.71729 5V11C7.71729 11.3978 7.55925 11.7794 7.27795 12.0607C6.99664 12.342 6.61511 12.5 6.21729 12.5C5.81946 12.5 5.43793 12.342 5.15662 12.0607C4.87532 11.7794 4.71729 11.3978 4.71729 11V5C4.71729 4.60218 4.87532 4.22064 5.15662 3.93934C5.43793 3.65804 5.81946 3.5 6.21729 3.5ZM11.2173 3.5C11.6151 3.5 11.9966 3.65804 12.2779 3.93934C12.5593 4.22064 12.7173 4.60218 12.7173 5V11C12.7173 11.3978 12.5593 11.7794 12.2779 12.0607C11.9966 12.342 11.6151 12.5 11.2173 12.5C10.8195 12.5 10.4379 12.342 10.1566 12.0607C9.87532 11.7794 9.71729 11.3978 9.71729 11V5C9.71729 4.60218 9.87532 4.22064 10.1566 3.93934C10.4379 3.65804 10.8195 3.5 11.2173 3.5Z" fill="black"/>
</svg>
