<svg width="19" height="12" viewBox="0 0 19 12" fill="none" xmlns="http://www.w3.org/2000/svg">
<path d="M0 0.00961256C0.151853 7.50362 3.85315 12 10.3447 12H10.7243V7.71489C13.1064 7.95513 14.9096 9.72299 15.6308 12H19C18.6545 10.7061 18.0418 9.50105 17.2026 8.46429C16.3634 7.42767 15.3166 6.58287 14.1314 5.98552C15.1935 5.3308 16.1109 4.46122 16.8261 3.43137C17.5413 2.40153 18.0391 1.23341 18.2882 0H15.2322C14.568 2.38271 12.5939 4.54437 10.7243 4.74613V0.00961256H7.6588V8.31066C5.76074 7.83018 3.36913 5.50518 3.26473 0.00961256H0Z" fill="#192031"/>
</svg>
