<svg width="210" height="36" viewBox="0 0 210 36" fill="none" xmlns="http://www.w3.org/2000/svg">
<path d="M13.5184 0.501871C16.1114 0.501871 18.3559 0.93404 20.2519 1.79838C22.1757 2.66271 23.6535 3.88951 24.6851 5.47878C25.7167 7.06804 26.2325 8.95007 26.2325 11.1249C26.2325 13.2718 25.7167 15.1538 24.6851 16.7709C23.6535 18.3602 22.1757 19.587 20.2519 20.4513C18.3559 21.2878 16.1114 21.706 13.5184 21.706H7.62142V29.7778H0.84613V0.501871H13.5184ZM13.142 16.1854C15.1774 16.1854 16.7248 15.7532 17.7843 14.8889C18.8439 13.9967 19.3736 12.742 19.3736 11.1249C19.3736 9.47982 18.8439 8.22514 17.7843 7.3608C16.7248 6.46858 15.1774 6.02248 13.142 6.02248H7.62142V16.1854H13.142Z" fill="black"/>
<path d="M55.2258 0.501871L42.7627 23.6717C41.5637 25.9022 40.1139 27.5891 38.4131 28.7322C36.7402 29.8754 34.9139 30.447 32.9343 30.447C31.4008 30.447 29.8115 30.1124 28.1665 29.4432L29.7976 24.299C30.9686 24.6615 31.9445 24.8427 32.7252 24.8427C33.5616 24.8427 34.3145 24.6475 34.9836 24.2572C35.6528 23.839 36.2662 23.1977 36.8238 22.3333L37.0748 21.9988L25.5317 0.501871H32.767L40.546 16.2272L48.576 0.501871H55.2258Z" fill="black"/>
<path d="M86.8968 24.2572V35.8421H80.6234V29.7778H59.9629V35.8421H53.6895L53.7313 24.2572H54.9024C56.6589 24.2014 57.8997 22.9189 58.6246 20.4095C59.3495 17.9001 59.7956 14.3173 59.9629 9.66105L60.2975 0.501871H82.7981V24.2572H86.8968ZM65.9436 10.2884C65.8042 13.7736 65.5114 16.7012 65.0653 19.0712C64.6192 21.4132 63.9361 23.1419 63.016 24.2572H76.1065V6.02248H66.069L65.9436 10.2884Z" fill="black"/>
<path d="M117.053 0.501871V29.7778H110.278V17.7747H96.9783V29.7778H90.203V0.501871H96.9783V12.045H110.278V0.501871H117.053Z" fill="black"/>
<path d="M145.801 24.3408V29.7778H123.134V0.501871H145.258V5.93883H129.867V12.2959H143.459V17.5656H129.867V24.3408H145.801Z" fill="black"/>
<path d="M170.303 14.5125C172.088 15.0422 173.454 15.9066 174.402 17.1055C175.35 18.3044 175.824 19.7822 175.824 21.5387C175.824 24.1317 174.834 26.1532 172.855 27.603C170.903 29.0529 168.101 29.7778 164.448 29.7778H150.019V0.501871H163.654C167.055 0.501871 169.704 1.15709 171.6 2.46754C173.496 3.77799 174.444 5.64607 174.444 8.07179C174.444 9.52165 174.081 10.8042 173.356 11.9195C172.632 13.0069 171.614 13.8712 170.303 14.5125ZM156.753 12.6305H163.068C164.546 12.6305 165.661 12.3377 166.414 11.7522C167.167 11.1388 167.543 10.2466 167.543 9.07553C167.543 7.93238 167.153 7.0541 166.372 6.4407C165.619 5.8273 164.518 5.5206 163.068 5.5206H156.753V12.6305ZM164.197 24.7591C167.376 24.7591 168.965 23.5044 168.965 20.995C168.965 18.5693 167.376 17.3564 164.197 17.3564H156.753V24.7591H164.197Z" fill="black"/>
<path d="M193.896 30.2797C190.857 30.2797 188.111 29.6244 185.657 28.314C183.232 27.0036 181.322 25.2052 179.928 22.9189C178.561 20.6047 177.878 18.0117 177.878 15.1398C177.878 12.268 178.561 9.68894 179.928 7.40263C181.322 5.08843 183.232 3.27611 185.657 1.96567C188.111 0.655223 190.857 0 193.896 0C196.935 0 199.668 0.655223 202.094 1.96567C204.519 3.27611 206.429 5.08843 207.823 7.40263C209.217 9.68894 209.914 12.268 209.914 15.1398C209.914 18.0117 209.217 20.6047 207.823 22.9189C206.429 25.2052 204.519 27.0036 202.094 28.314C199.668 29.6244 196.935 30.2797 193.896 30.2797ZM193.896 24.5081C195.625 24.5081 197.186 24.1178 198.58 23.3371C199.975 22.5285 201.062 21.4132 201.843 19.9913C202.651 18.5693 203.056 16.9522 203.056 15.1398C203.056 13.3275 202.651 11.7104 201.843 10.2884C201.062 8.86642 199.975 7.76509 198.58 6.9844C197.186 6.17583 195.625 5.77154 193.896 5.77154C192.168 5.77154 190.606 6.17583 189.212 6.9844C187.818 7.76509 186.717 8.86642 185.908 10.2884C185.128 11.7104 184.737 13.3275 184.737 15.1398C184.737 16.9522 185.128 18.5693 185.908 19.9913C186.717 21.4132 187.818 22.5285 189.212 23.3371C190.606 24.1178 192.168 24.5081 193.896 24.5081Z" fill="black"/>
</svg>
