<svg width="12" height="17" viewBox="0 0 12 17" fill="none" xmlns="http://www.w3.org/2000/svg">
<g clip-path="url(#clip0_184_7302)">
<path d="M5.25938 16.575C3.62813 14.4434 0 9.27695 0 6.375C0 2.85414 2.68625 0 6 0C9.3125 0 12 2.85414 12 6.375C12 9.27695 8.34375 14.4434 6.74062 16.575C6.35625 17.083 5.64375 17.083 5.25938 16.575ZM6 8.5C7.10313 8.5 8 7.54707 8 6.375C8 5.20293 7.10313 4.25 6 4.25C4.89687 4.25 4 5.20293 4 6.375C4 7.54707 4.89687 8.5 6 8.5Z" fill="#192031"/>
</g>
<defs>
<clipPath id="clip0_184_7302">
<rect width="12" height="17" fill="white"/>
</clipPath>
</defs>
</svg>
