<svg width="17" height="15" viewBox="0 0 17 15" fill="none" xmlns="http://www.w3.org/2000/svg">
<path d="M15.5582 0.124067C13.3155 1.05292 3.69917 5.03611 1.04219 6.12173C-0.739699 6.81709 0.303444 7.46908 0.303444 7.46908C0.303444 7.46908 1.8245 7.99056 3.12848 8.38171C4.43227 8.77287 5.12764 8.33833 5.12764 8.33833L11.2556 4.20951C13.4287 2.73183 12.9072 3.94868 12.3855 4.47034C11.2556 5.60043 9.38679 7.38214 7.82216 8.81643C7.1268 9.42486 7.47439 9.94634 7.77878 10.2072C8.90869 11.1634 11.9946 13.1191 12.1683 13.2495C13.0864 13.8995 14.8923 14.8351 15.167 12.8583L16.2535 6.03496C16.6013 3.73159 16.9489 1.60193 16.9923 0.993504C17.1228 -0.484357 15.5582 0.124067 15.5582 0.124067Z" fill="#192031"/>
</svg>
