<svg width="128" height="36" viewBox="0 0 128 36" fill="none" xmlns="http://www.w3.org/2000/svg">
<path d="M43.2203 22.9091V8.90839H40.9062V22.9091H43.2203Z" fill="#222222"/>
<path d="M44.6367 18.2422C44.6367 21.1025 46.5714 23.1349 49.5114 23.1349C52.4513 23.1349 54.386 21.1025 54.386 18.2422C54.386 15.3818 52.4513 13.3494 49.5114 13.3494C46.5714 13.3494 44.6367 15.3818 44.6367 18.2422ZM46.9697 18.2422C46.9697 16.5673 47.975 15.4006 49.5114 15.4006C51.0477 15.4006 52.053 16.5673 52.053 18.2422C52.053 19.8982 51.0477 21.0837 49.5114 21.0837C47.975 21.0837 46.9697 19.8982 46.9697 18.2422Z" fill="#222222"/>
<path d="M55.1641 18.054C55.1641 20.7638 56.928 22.7209 59.5645 22.7209C60.9302 22.7209 62.1062 22.1752 62.6942 21.2719V22.8526C62.6942 24.3769 61.7268 25.3931 60.1146 25.3931C58.6731 25.3931 57.6867 24.6968 57.554 23.4736H55.221C55.5244 25.9012 57.4022 27.4819 59.9818 27.4819C63.0166 27.4819 64.9513 25.506 64.9513 22.4386V13.6129H62.9028L62.77 14.8737C62.201 13.8952 61.025 13.3118 59.6404 13.3118C56.966 13.3118 55.1641 15.3254 55.1641 18.054ZM57.516 17.9976C57.516 16.4545 58.5023 15.3254 59.9628 15.3254C61.5561 15.3254 62.6183 16.4733 62.6183 17.9976C62.6183 19.5406 61.5561 20.7262 59.9628 20.7262C58.5213 20.7262 57.516 19.5595 57.516 17.9976Z" fill="#222222"/>
<path d="M66.0967 18.2422C66.0967 21.1025 68.0314 23.1349 70.9713 23.1349C73.9113 23.1349 75.846 21.1025 75.846 18.2422C75.846 15.3818 73.9113 13.3494 70.9713 13.3494C68.0314 13.3494 66.0967 15.3818 66.0967 18.2422ZM68.4297 18.2422C68.4297 16.5673 69.435 15.4006 70.9713 15.4006C72.5077 15.4006 73.513 16.5673 73.513 18.2422C73.513 19.8982 72.5077 21.0837 70.9713 21.0837C69.435 21.0837 68.4297 19.8982 68.4297 18.2422Z" fill="#222222"/>
<path d="M78.35 11.7123C79.1087 11.7123 79.7347 11.1101 79.7347 10.3386C79.7347 9.58582 79.1087 8.98364 78.35 8.98364C77.5724 8.98364 76.9844 9.58582 76.9844 10.3386C76.9844 11.1101 77.5724 11.7123 78.35 11.7123ZM77.193 22.9091H79.5071V13.6129H77.193V22.9091Z" fill="#222222"/>
<path d="M81.5347 27.2184H83.792V21.6294C84.38 22.5892 85.6508 23.1537 87.0544 23.1537C89.8236 23.1537 91.4738 21.0461 91.4359 18.1481C91.379 15.2313 89.6909 13.3306 87.0354 13.3306C85.6128 13.3306 84.3231 13.9516 83.754 15.0243L83.6213 13.6129H81.5347V27.2184ZM83.8868 18.261C83.8868 16.5862 84.911 15.4194 86.5233 15.4194C88.1355 15.4194 89.1029 16.605 89.1029 18.261C89.1029 19.917 88.1355 21.0837 86.5233 21.0837C84.911 21.0837 83.8868 19.9358 83.8868 18.261Z" fill="#222222"/>
<path d="M92.0229 20.124C92.0988 21.9682 93.5404 23.1537 95.7785 23.1537C97.9788 23.1537 99.4772 21.987 99.4772 20.1804C99.4772 18.8444 98.6426 17.9411 97.1062 17.5647L95.4561 17.1695C94.7543 16.9814 94.2801 16.7367 94.2801 16.1345C94.2801 15.4947 94.7922 15.0431 95.6268 15.0431C96.4993 15.0431 97.0683 15.5324 97.0683 16.3415H99.1737C99.0978 14.4974 97.7132 13.3306 95.6837 13.3306C93.6731 13.3306 92.1747 14.4974 92.1747 16.2663C92.1747 17.4706 92.8765 18.468 94.6784 18.9384L96.3096 19.3524C96.9166 19.5218 97.2959 19.8041 97.2959 20.331C97.2959 21.0649 96.5941 21.4036 95.7406 21.4036C94.7163 21.4036 94.1283 20.9332 94.1283 20.124H92.0229Z" fill="#222222"/>
<path d="M104.277 23.1537C105.548 23.1537 106.762 22.5704 107.312 21.7047L107.464 22.9091H109.626V13.6129H107.312V18.4868C107.312 20.1616 106.667 21.1026 105.15 21.1026C103.974 21.1026 103.158 20.538 103.158 18.6186V13.6129H100.844V19.4277C100.844 21.6483 102.058 23.1537 104.277 23.1537Z" fill="#222222"/>
<path d="M113.982 22.9091V17.5647C113.982 16.0593 114.874 15.3442 115.974 15.3442C117.074 15.3442 117.795 16.0404 117.795 17.3577V22.9091H120.052V17.5835C120.052 16.0593 120.925 15.3442 122.025 15.3442C123.144 15.3442 123.865 16.0404 123.865 17.3577V22.9091H126.103V16.8308C126.103 14.6855 124.908 13.3306 122.632 13.3306C121.209 13.3306 120.09 14.0081 119.635 15.0995C119.123 14.0081 118.098 13.3306 116.543 13.3306C115.443 13.3306 114.457 13.8387 113.907 14.6667L113.793 13.6129H111.668V22.9091H113.982Z" fill="#222222"/>
<path d="M108.435 31.2169C108.78 31.2169 109.079 30.9289 109.079 30.5869C109.079 30.2359 108.78 29.9479 108.435 29.9479C108.081 29.9479 107.782 30.2359 107.782 30.5869C107.782 30.9289 108.081 31.2169 108.435 31.2169Z" fill="#222222"/>
<path d="M109.744 28.8949C109.744 30.2719 110.597 31.1989 111.84 31.1989C112.91 31.1989 113.726 30.5599 113.899 29.6059H113.082C112.928 30.1369 112.456 30.4519 111.894 30.4519C111.096 30.4519 110.588 29.8399 110.588 28.8859C110.588 27.9139 111.123 27.3199 111.912 27.3199C112.456 27.3199 112.928 27.6079 113.073 28.1749H113.89C113.745 27.2119 112.983 26.5639 111.921 26.5639C110.633 26.5639 109.744 27.5089 109.744 28.8949Z" fill="#222222"/>
<path d="M114.221 28.8859C114.221 30.2089 115.128 31.1989 116.489 31.1989C117.849 31.1989 118.756 30.2089 118.756 28.8859C118.756 27.5629 117.849 26.5729 116.489 26.5729C115.128 26.5729 114.221 27.5629 114.221 28.8859ZM115.082 28.8859C115.082 27.9859 115.636 27.3289 116.489 27.3289C117.341 27.3289 117.895 27.9859 117.895 28.8859C117.895 29.7859 117.341 30.4429 116.489 30.4429C115.636 30.4429 115.082 29.7859 115.082 28.8859Z" fill="#222222"/>
<path d="M120.337 31.0999V28.4539C120.337 27.7609 120.773 27.3109 121.408 27.3109C122.015 27.3109 122.396 27.6979 122.396 28.3909V31.0999H123.231V28.4629C123.231 27.7609 123.657 27.3109 124.301 27.3109C124.9 27.3109 125.281 27.6979 125.281 28.3909V31.0999H126.107V28.2109C126.107 27.1939 125.508 26.5729 124.492 26.5729C123.802 26.5729 123.267 26.9059 123.049 27.4459C122.823 26.9059 122.324 26.5729 121.598 26.5729C121.045 26.5729 120.555 26.8249 120.31 27.2569L120.246 26.6989H119.484V31.0999H120.337Z" fill="#222222"/>
<path fill-rule="evenodd" clip-rule="evenodd" d="M2.44922 18.3561L2.45081 18.1922L2.45409 18.0281L2.45907 17.8641L2.46575 17.7L2.47412 17.536L2.48419 17.372L2.49597 17.208L2.50944 17.044L2.52461 16.8801L2.54148 16.7163L2.56006 16.5526L2.58032 16.389L2.60229 16.2255L2.62595 16.0622L2.65131 15.8991L2.67837 15.7362L2.70713 15.5733L2.73757 15.4109L2.7697 15.2485L2.80353 15.0864L2.83905 14.9246L2.87624 14.7631L2.91514 14.6019L2.95569 14.441L2.99794 14.2805L3.04186 14.1202L3.08745 13.9603L3.13471 13.8008L3.18364 13.6418L3.23423 13.4831L3.28648 13.3249L3.34039 13.1671L3.39595 13.0097L3.45315 12.8529L3.51199 12.6965L3.57248 12.5407L3.6346 12.3854L3.69835 12.2306L3.76372 12.0764L3.83071 11.9228L3.89931 11.7697L3.96952 11.6173L4.04134 11.4655L4.11475 11.3143L4.18975 11.1638L4.26634 11.0139L4.3445 10.8648L4.42424 10.7163L4.50554 10.5686L4.58839 10.4216L4.67281 10.2753L4.75875 10.1298L4.84624 9.98508L4.93526 9.84116L5.0258 9.69806L5.11785 9.55578L5.21141 9.4144L5.30647 9.27375L5.40302 9.13409L5.50105 8.99524L5.60054 8.8573L5.7015 8.72033L5.80392 8.58419L5.90778 8.44911L6.01308 8.31493L6.1198 8.18168L6.22794 8.04946L6.33749 7.91824L6.44843 7.78803L6.56077 7.65885L6.67448 7.53071L6.78956 7.40364L6.906 7.27763L7.02378 7.15271L7.1429 7.02889L7.26334 6.90618L7.3851 6.78459L7.50816 6.66414L7.63251 6.54484L7.75814 6.4267L7.88504 6.30975L8.0132 6.19398L8.1426 6.07942L8.27323 5.96606L8.40509 5.85393L8.53815 5.74305L8.67241 5.63342L8.80785 5.52506L8.94447 5.41796L9.08225 5.31216L9.22112 5.20766L9.36124 5.10446L9.50242 5.0026L9.64468 4.90207L9.788 4.80288L9.93249 4.70505L10.078 4.60858L10.2245 4.5135L10.3721 4.4198L10.5208 4.32751L10.6704 4.23662L10.8211 4.14716L10.9727 4.05913L11.1252 3.97254L11.2788 3.8874L11.4332 3.80372L11.5886 3.72151L11.7449 3.64079L11.9021 3.56155L12.0601 3.48382L12.2191 3.40759L12.3789 3.33287L12.5395 3.25968L12.7009 3.18803L12.8631 3.11792L13.0262 3.04937L13.19 2.98238L13.3545 2.91695L13.5197 2.85309L13.6858 2.79082L13.8524 2.73014L14.0198 2.67107L14.1879 2.61359L14.3566 2.55772L14.5259 2.50349L14.6959 2.45087L14.8665 2.39989L15.0377 2.35055L15.2094 2.30286L15.3818 2.25681L15.5546 2.21243L15.728 2.16971L15.9018 2.12867L16.0762 2.08929L16.2511 2.0516L16.4263 2.0156L16.602 1.98128L16.7782 1.94867L16.9548 1.91775L17.1317 1.88854L17.309 1.86104L17.4867 1.83525L17.6646 1.81119L17.8429 1.78885L18.0216 1.76823L18.2004 1.74933L18.3796 1.73218L18.5589 1.71676L18.7385 1.70307L18.9183 1.69113L19.8852 1.63635L19.9403 6.25799L19.9719 6.25763L20.1054 6.25744L20.239 6.25856L20.3725 6.26097L20.5061 6.26469L20.6397 6.26972L20.7734 6.27603L20.9071 6.28367L21.0408 6.29261L21.1744 6.30284L21.3081 6.3144L21.4416 6.32726L21.5751 6.34143L21.7084 6.3569L21.8418 6.37368L21.975 6.39177L22.1081 6.41116L22.241 6.43187L22.3739 6.45388L22.5065 6.47719L22.639 6.50181L22.7713 6.52773L22.9033 6.55496L23.0353 6.58348L23.1669 6.6133L23.2982 6.64442L23.4295 6.67684L23.5603 6.71055L23.6909 6.74555L23.8212 6.78185L23.9512 6.81943L24.0809 6.85829L24.2102 6.89844L24.3392 6.93987L24.4678 6.98258L24.596 7.02656L24.7239 7.07181L24.8514 7.11833L24.9784 7.16612L25.1049 7.21516L25.2311 7.26547L25.3568 7.31703L25.482 7.36984L25.6068 7.42389L25.731 7.47919L25.8547 7.53573L25.9779 7.59349L26.1007 7.65249L26.2228 7.71272L26.3444 7.77416L26.4653 7.83682L26.5857 7.90069L26.7056 7.96577L26.8247 8.03204L26.9433 8.09951L27.0612 8.16816L27.1785 8.23802L27.2951 8.30903L27.4111 8.3812L27.5263 8.45459L27.6408 8.52904L27.7546 8.60473L27.8678 8.68155L27.9801 8.75944L28.0918 8.83856L28.2026 8.91874L28.3126 9.00007L28.422 9.08254L28.5304 9.16608L28.6381 9.25076L28.7449 9.33642L28.851 9.42323L28.9561 9.51119L29.0604 9.60012L29.1639 9.69013L29.2665 9.78119L29.3681 9.87332L29.4689 9.96651L29.5688 10.0607L29.6677 10.1558L29.7657 10.2521L29.8627 10.3493L29.9588 10.4475L30.054 10.5467L30.1481 10.6468L30.2413 10.748L30.3334 10.8501L30.4245 10.9531L30.5147 11.0571L30.6037 11.162L30.6918 11.2677L30.7788 11.3745L30.8647 11.4821L30.9496 11.5906L31.0334 11.7L31.1161 11.8103L31.1976 11.9214L31.2781 12.0334L31.3575 12.1462L31.4357 12.2598L31.5128 12.3743L31.5888 12.4895L31.6636 12.6056L31.7372 12.7225L31.8096 12.84L31.8809 12.9584L31.951 13.0776L32.0198 13.1974L32.0876 13.318L32.154 13.4394L32.2193 13.5614L32.2833 13.6841L32.346 13.8075L32.4075 13.9315L32.4678 14.0563L32.5269 14.1816L32.5846 14.3076L32.6411 14.4343L32.6962 14.5615L32.7501 14.6894L32.8027 14.8178L32.854 14.9468L32.904 15.0763L32.9526 15.2065L33 15.3371L33.046 15.4683L33.0907 15.5999L33.1341 15.7322L33.176 15.8648L33.2167 15.9979L33.256 16.1315L33.2939 16.2655L33.3304 16.4L33.3656 16.535L33.3994 16.6702L33.4319 16.8059L33.4629 16.942L33.4925 17.0785L33.5208 17.2152L33.5476 17.3524L33.573 17.4899L33.597 17.6276L33.6196 17.7657L33.6408 17.904L33.6606 18.0427L33.6789 18.1815L33.6958 18.3207L33.7113 18.4601L33.7254 18.5996L33.738 18.7394L33.7492 18.8794L33.7589 19.0195L33.7672 19.1598L33.774 19.3002L33.7795 19.4409L33.7833 19.5815L33.7859 19.7223L33.7869 19.8632L33.7865 20.0042L33.7846 20.1453L33.7812 20.2864L33.7764 20.4275L33.7701 20.5686L33.7625 20.7097L33.7532 20.8509L33.7426 20.992L33.7305 21.1331L33.7169 21.2741L33.7019 21.4151L33.6853 21.5559L33.6673 21.6967L33.6479 21.8373L33.627 21.9779L33.6046 22.1183L33.5808 22.2585L33.5555 22.3986L33.5288 22.5385L33.5006 22.6783L33.4709 22.8178L33.4397 22.957L33.4071 23.0961L33.3731 23.2349L33.3376 23.3734L33.3007 23.5116L33.2623 23.6495L33.2225 23.7872L33.1812 23.9244L33.1385 24.0615L33.0943 24.198L33.0488 24.3344L33.0018 24.4702L32.9533 24.6057L32.9035 24.7407L32.8522 24.8753L32.7995 25.0095L32.7454 25.1433L32.6899 25.2766L32.633 25.4094L32.5747 25.5417L32.515 25.6735L32.4539 25.8048L32.3914 25.9355L32.3275 26.0657L32.2622 26.1954L32.1957 26.3244L32.1276 26.453L32.0584 26.5808L31.9876 26.7081L31.9156 26.8346L31.8422 26.9606L31.7675 27.086L31.6915 27.2106L31.6141 27.3346L31.5354 27.4578L31.4554 27.5804L31.3741 27.7022L31.2915 27.8233L31.2076 27.9437L31.1224 28.0633L31.036 28.1821L30.9483 28.3002L30.8593 28.4174L30.7691 28.5338L30.6776 28.6494L30.5849 28.7642L30.491 28.878L30.3958 28.991L30.2994 29.1032L30.2019 29.2145L30.1031 29.3249L30.0031 29.4343L29.902 29.5429L29.7997 29.6505L29.6962 29.7572L29.5917 29.8628L29.4859 29.9675L29.379 30.0713L29.271 30.174L29.1619 30.2758L29.0518 30.3765L28.9404 30.4763L28.828 30.5749L28.7146 30.6725L28.6001 30.7691L28.4845 30.8646L28.3679 30.9589L28.2503 31.0523L28.1317 31.1445L28.012 31.2356L27.8914 31.3255L27.7697 31.4143L27.6472 31.502L27.5236 31.5885L27.399 31.6739L27.2736 31.7581L27.1473 31.8411L27.0199 31.9229L26.8918 32.0036L26.7627 32.0829L26.6327 32.1612L26.5019 32.2381L26.3702 32.3138L26.2377 32.3883L26.1043 32.4614L25.9702 32.5334L25.8352 32.604L25.6995 32.6734L25.5629 32.7416L25.4256 32.8083L25.2875 32.8738L25.1487 32.938L25.0092 33.0009L24.869 33.0624L24.7281 33.1225L24.5865 33.1814L24.4442 33.2389L24.3013 33.295L24.1577 33.3497L24.0135 33.4032L23.8687 33.4551L23.7232 33.5058L23.5772 33.5549L23.4307 33.6028L23.2835 33.6492L23.1358 33.6942L22.9876 33.7378L22.8389 33.7799L22.6896 33.8207L22.54 33.86L22.3897 33.8978L22.2391 33.9342L22.088 33.9693L21.9365 34.0027L21.7846 34.0348L21.6322 34.0654L21.4795 34.0945L21.3264 34.1222L21.1731 34.1483L21.0193 34.173L20.8652 34.1962L20.7107 34.2179L20.5561 34.2381L20.4012 34.2569L20.2459 34.274L20.0904 34.2897L19.9347 34.304L19.7789 34.3167L19.6228 34.3279L19.4665 34.3375L19.31 34.3457L19.1533 34.3523L18.9967 34.3574L18.8397 34.361L18.6828 34.3631L18.5257 34.3636L18.3686 34.3626L18.2114 34.3601L18.0541 34.3561L17.8969 34.3505L17.7396 34.3433L17.5823 34.3347L17.4252 34.3245L17.2679 34.3128L17.1108 34.2996L16.9537 34.2848L16.7967 34.2685L16.6398 34.2506L16.483 34.2312L16.3264 34.2103L16.1699 34.1878L16.0136 34.1638L15.8575 34.1383L15.7015 34.1113L15.5457 34.0827L15.3903 34.0526L15.235 34.021L15.08 33.9878L14.9252 33.9531L14.7709 33.9169L14.6167 33.8792L14.4629 33.8399L14.3095 33.7992L14.1564 33.7569L14.0037 33.7132L13.8513 33.6679L13.6994 33.6211L13.5479 33.5729L13.3968 33.5231L13.2461 33.4718L13.0959 33.419L12.9463 33.3649L12.7971 33.3092L12.6484 33.252L12.5003 33.1933L12.3527 33.1332L12.2056 33.0716L12.0592 33.0086L11.9133 32.9441L11.768 32.8781L11.6233 32.8107L11.4793 32.7419L11.336 32.6716L11.1933 32.6L11.0512 32.5269L10.91 32.4524L10.7693 32.3765L10.6294 32.2992L10.4903 32.2205L10.3519 32.1404L10.2143 32.0589L10.0775 31.9761L9.94139 31.8918L9.80615 31.8063L9.67181 31.7193L9.53821 31.6311L9.40552 31.5415L9.27374 31.4506L9.14278 31.3584L9.01274 31.2648L8.88361 31.1699L8.7554 31.0737L8.62815 30.9763L8.50184 30.8776L8.3765 30.7775L8.25215 30.6763L8.12878 30.5738L8.00643 30.4701L7.88509 30.3651L7.7648 30.2588L7.64555 30.1514L7.52736 30.0428L7.41024 29.9329L7.29422 29.822L7.17929 29.7097L7.06547 29.5964L6.95278 29.4819L6.84123 29.3663L6.73082 29.2495L6.62157 29.1316L6.51351 29.0126L6.40662 28.8924L6.30093 28.7713L6.19645 28.649L6.0932 28.5257L5.99117 28.4012L5.89039 28.2758L5.79087 28.1493L5.69261 28.0218L5.59563 27.8933L5.49993 27.7638L5.40554 27.6333L5.31245 27.5018L5.22069 27.3694L5.13025 27.236L5.04117 27.1017L4.95343 26.9665L4.86704 26.8304L4.78204 26.6933L4.69841 26.5555L4.61618 26.4166L4.53535 26.277L4.45593 26.1366L4.37792 25.9953L4.30135 25.8531L4.2262 25.7101L4.15252 25.5665L4.08028 25.422L4.00951 25.2767L3.94022 25.1307L3.87239 24.984L3.80607 24.8365L3.74123 24.6884L3.6779 24.5395L3.61609 24.39L3.55579 24.2398L3.49703 24.0889L3.4398 23.9375L3.38411 23.7854L3.32997 23.6327L3.27738 23.4794L3.22636 23.3255L3.17691 23.1711L3.12903 23.0162L3.08274 22.8607L3.03804 22.7047L2.99492 22.5482L2.95341 22.3913L2.9135 22.2338L2.8752 22.0759L2.83853 21.9176L2.80347 21.7588L2.77004 21.5997L2.73824 21.4401L2.70808 21.2802L2.67955 21.12L2.65267 20.9594L2.62744 20.7984L2.60386 20.6372L2.58194 20.4756L2.56169 20.3137L2.54309 20.1516L2.52616 19.9893L2.5109 19.8268L2.49732 19.664L2.48541 19.501L2.47519 19.3379L2.46664 19.1746L2.45978 19.0111L2.4546 18.8475L2.45112 18.6838L2.44933 18.52L2.44922 18.3561ZM18.4299 6.3548L18.3923 3.20464L18.3565 3.20806L18.1926 3.22537L18.0291 3.24425L17.8656 3.26474L17.7028 3.28675L17.5402 3.31036L17.3777 3.33555L17.2158 3.36229L17.054 3.39062L16.893 3.42043L16.7318 3.45191L16.5717 3.4848L16.4114 3.51935L16.2519 3.55537L16.0926 3.59299L15.934 3.63205L15.7758 3.67268L15.618 3.71482L15.4608 3.75849L15.3043 3.80362L15.148 3.8503L14.9925 3.89844L14.8375 3.9481L14.6833 3.99914L14.5293 4.05179L14.3762 4.10585L14.2238 4.16134L14.0718 4.21834L13.9206 4.27673L13.7703 4.33653L13.6204 4.39787L13.4712 4.4606L13.3227 4.52476L13.1751 4.59028L13.0282 4.65721L12.8822 4.7255L12.7366 4.79529L12.5921 4.86635L12.4484 4.9388L12.3055 5.01262L12.1634 5.0878L12.0223 5.16427L11.8818 5.24215L11.7422 5.32139L11.6038 5.40175L11.4658 5.48368L11.3292 5.5667L11.1934 5.65102L11.0583 5.73671L10.9243 5.82366L10.7913 5.91188L10.6595 6.00113L10.5282 6.09197L10.3983 6.18377L10.2693 6.27685L10.1412 6.3712L10.0143 6.46668L9.88853 6.5633L9.76351 6.66127L9.63989 6.76018L9.51718 6.86039L9.39562 6.96169L9.27514 7.06417L9.15589 7.16763L9.03753 7.2724L8.92053 7.3781L8.80452 7.48502L8.68986 7.59284L8.57624 7.70183L8.46389 7.8118L8.35268 7.92286L8.24255 8.03507L8.13387 8.14804L8.02641 8.26199L7.9199 8.37727L7.81487 8.49329L7.71113 8.61013L7.60845 8.72819L7.50726 8.84699L7.40719 8.96685L7.30847 9.08753L7.21104 9.2092L7.11489 9.33168L7.02015 9.45498L6.92664 9.57918L6.83443 9.70436L6.7437 9.83012L6.65418 9.95693L6.56609 10.0844L6.47936 10.2127L6.39393 10.3418L6.30994 10.4717L6.22734 10.6022L6.14611 10.7335L6.06634 10.8654L5.98788 10.9982L5.91083 11.1318L5.8353 11.2658L5.76112 11.4005L5.68836 11.536L5.61708 11.6721L5.54719 11.8088L5.47881 11.946L5.41186 12.0839L5.34638 12.2223L5.28232 12.3614L5.21979 12.5009L5.15867 12.6411L5.09905 12.7817L5.04095 12.9228L4.9843 13.0644L4.92914 13.2065L4.8755 13.349L4.82334 13.4921L4.77272 13.6354L4.72356 13.7793L4.67592 13.9236L4.62982 14.0682L4.58523 14.2131L4.54214 14.3586L4.5006 14.5042L4.46058 14.6503L4.42207 14.7966L4.3851 14.9433L4.34967 15.0901L4.31578 15.2373L4.28342 15.3848L4.2526 15.5324L4.22333 15.6803L4.19558 15.8284L4.16939 15.9766L4.14474 16.1251L4.12164 16.2737L4.10009 16.4225L4.08008 16.5714L4.06162 16.7204L4.0447 16.8694L4.02934 17.0187L4.01552 17.1679L4.00325 17.3171L3.99253 17.4665L3.98336 17.6159L3.97573 17.7653L3.96966 17.9147L3.96512 18.064L3.96214 18.2133L3.96068 18.3625L3.96078 18.5118L3.96242 18.6608L3.96559 18.8099L3.9703 18.9588L3.97654 19.1076L3.98433 19.2562L3.99363 19.4046L4.00447 19.553L4.01683 19.7011L4.03072 19.849L4.04611 19.9968L4.06303 20.1442L4.08147 20.2915L4.10141 20.4384L4.12286 20.5851L4.14582 20.7316L4.17026 20.8776L4.19621 21.0234L4.22365 21.1689L4.25257 21.314L4.28297 21.4588L4.31486 21.6031L4.34822 21.7471L4.38304 21.8907L4.41933 22.0339L4.45708 22.1766L4.49627 22.3188L4.53693 22.4607L4.57902 22.6021L4.62254 22.743L4.6675 22.8834L4.71388 23.0232L4.76167 23.1626L4.81089 23.3013L4.86151 23.4396L4.91351 23.5772L4.96694 23.7143L5.02173 23.8508L5.0779 23.9867L5.13545 24.122L5.19436 24.2565L5.25463 24.3906L5.31625 24.5239L5.37922 24.6566L5.44351 24.7885L5.50914 24.9198L5.57607 25.0503L5.64433 25.1802L5.71389 25.3093L5.78474 25.4377L5.85688 25.5652L5.93029 25.692L6.00497 25.8181L6.08092 25.9433L6.15809 26.0678L6.23655 26.1914L6.3162 26.3141L6.3971 26.4361L6.47922 26.5572L6.56252 26.6774L6.64701 26.7968L6.73272 26.9152L6.81958 27.0328L6.90763 27.1495L6.99679 27.2652L7.08715 27.38L7.17859 27.4938L7.27119 27.6067L7.36492 27.7187L7.4597 27.8296L7.55561 27.9396L7.65258 28.0486L7.75066 28.1566L7.84977 28.2635L7.94991 28.3695L8.05111 28.4743L8.15333 28.5783L8.2566 28.6811L8.36084 28.7828L8.4661 28.8835L8.5723 28.9831L8.67948 29.0817L8.78766 29.1791L8.89675 29.2754L9.00672 29.3706L9.11771 29.4647L9.22962 29.5576L9.34227 29.6494L9.45599 29.7402L9.57045 29.8296L9.68583 29.918L9.80202 30.0052L9.91913 30.0912L10.037 30.1759L10.1556 30.2595L10.2751 30.3419L10.3954 30.4232L10.5164 30.5031L10.6382 30.5819L10.7607 30.6595L10.884 30.7357L11.008 30.8108L11.1326 30.8846L11.2581 30.9572L11.3841 31.0285L11.5108 31.0985L11.6382 31.1672L11.7662 31.2347L11.8948 31.3009L12.024 31.3659L12.1539 31.4295L12.2844 31.4918L12.4153 31.5528L12.5469 31.6126L12.6789 31.6709L12.8116 31.728L12.9447 31.7837L13.0784 31.8382L13.2125 31.8913L13.3471 31.943L13.4821 31.9935L13.6175 32.0426L13.7535 32.0903L13.8899 32.1367L14.0266 32.1818L14.1637 32.2255L14.3011 32.2678L14.4391 32.3088L14.5772 32.3484L14.7158 32.3866L14.8546 32.4235L14.9938 32.459L15.1332 32.4931L15.2728 32.5258L15.4129 32.5572L15.5531 32.5872L15.6934 32.6158L15.8341 32.6431L15.975 32.6689L16.116 32.6934L16.2572 32.7165L16.3985 32.7381L16.54 32.7584L16.6817 32.7773L16.8234 32.7949L16.9652 32.811L17.1072 32.8258L17.2492 32.8392L17.3913 32.8511L17.5334 32.8618L17.6754 32.8709L17.8176 32.8788L17.9597 32.8852L18.1018 32.8902L18.2439 32.8939L18.386 32.8961L18.5279 32.897L18.6698 32.8965L18.8117 32.8947L18.9534 32.8915L19.095 32.8868L19.2365 32.8808L19.3778 32.8735L19.5189 32.8647L19.6599 32.8547L19.8008 32.8432L19.9414 32.8304L20.0818 32.8161L20.222 32.8006L20.3618 32.7837L20.5015 32.7655L20.6409 32.7458L20.78 32.7249L20.9188 32.7026L21.0574 32.679L21.1956 32.654L21.3334 32.6278L21.4708 32.6002L21.608 32.5712L21.7447 32.541L21.881 32.5095L22.017 32.4766L22.1525 32.4425L22.2876 32.4069L22.4222 32.3702L22.5565 32.3322L22.6901 32.2928L22.8234 32.2522L22.9561 32.2104L23.0884 32.1672L23.2201 32.1229L23.3511 32.0772L23.4818 32.0303L23.6119 31.9821L23.7413 31.9327L23.8702 31.8822L23.9985 31.8304L24.1261 31.7773L24.2532 31.723L24.3796 31.6676L24.5053 31.6109L24.6305 31.5531L24.755 31.494L24.8787 31.4339L25.0018 31.3724L25.1241 31.3099L25.2457 31.2463L25.3667 31.1814L25.4868 31.1154L25.6062 31.0484L25.7248 30.9802L25.8428 30.9108L25.9597 30.8405L26.0762 30.7689L26.1915 30.6963L26.3062 30.6226L26.4201 30.5478L26.5331 30.4719L26.6451 30.3951L26.7564 30.3171L26.8668 30.2382L26.9763 30.1583L27.085 30.0772L27.1926 29.9953L27.2996 29.9121L27.4054 29.8282L27.5103 29.7433L27.6144 29.6573L27.7175 29.5703L27.8195 29.4825L27.9207 29.3937L28.0208 29.304L28.12 29.2133L28.2183 29.1218L28.3153 29.0294L28.4116 28.936L28.5067 28.8417L28.6008 28.7466L28.6939 28.6507L28.7859 28.554L28.8768 28.4564L28.9668 28.3578L29.0556 28.2586L29.1434 28.1585L29.23 28.0577L29.3156 27.956L29.4 27.8536L29.4833 27.7504L29.5656 27.6464L29.6467 27.5419L29.7268 27.4364L29.8055 27.3304L29.8833 27.2235L29.96 27.1159L30.0352 27.0079L30.1095 26.899L30.1825 26.7896L30.2544 26.6794L30.3252 26.5686L30.3947 26.4573L30.4629 26.3454L30.5302 26.2325L30.596 26.1195L30.6607 26.0057L30.7243 25.8914L30.7865 25.7766L30.8476 25.6611L30.9074 25.5451L30.9659 25.429L31.0233 25.3119L31.0795 25.1944L31.1343 25.0766L31.1879 24.9583L31.2403 24.8395L31.2913 24.7204L31.3412 24.6006L31.3898 24.4805L31.4371 24.3603L31.4831 24.2392L31.5278 24.1181L31.5713 23.9964L31.6135 23.8745L31.6544 23.7522L31.6939 23.6299L31.7324 23.5067L31.7693 23.3836L31.805 23.2602L31.8395 23.1365L31.8726 23.0124L31.9044 22.8883L31.935 22.7638L31.9642 22.639L31.9921 22.5141L32.0188 22.389L32.044 22.2639L32.068 22.1382L32.0907 22.0128L32.112 21.887L32.1321 21.7611L32.1508 21.6352L32.1683 21.509L32.1844 21.383L32.1992 21.2564L32.2127 21.1304L32.2249 21.0039L32.2357 20.8776L32.2452 20.751L32.2535 20.6248L32.2604 20.4982L32.266 20.3716L32.2703 20.2452L32.2734 20.1192L32.275 19.9926L32.2754 19.8663L32.2745 19.7401L32.2723 19.614L32.2687 19.4879L32.2639 19.3623L32.2578 19.2363L32.2503 19.1108L32.2416 18.9852L32.2316 18.8601L32.2203 18.7348L32.2078 18.61L32.1939 18.4852L32.1788 18.3607L32.1624 18.2364L32.1447 18.1124L32.1257 17.9884L32.1055 17.8649L32.084 17.7419L32.0612 17.6187L32.0372 17.496L32.0119 17.3738L31.9854 17.2514L31.9578 17.13L31.9286 17.0084L31.8985 16.8877L31.867 16.7667L31.8343 16.6467L31.8004 16.5269L31.7653 16.4072L31.729 16.2884L31.6915 16.1699L31.6526 16.0515L31.6128 15.934L31.5716 15.8166L31.5293 15.6999L31.4858 15.5835L31.4412 15.4679L31.3952 15.3524L31.3482 15.2376L31.3002 15.1236L31.2509 15.01L31.2003 14.8966L31.1489 14.7843L31.096 14.672L31.0423 14.5608L30.9874 14.4501L30.9312 14.3397L30.8741 14.2302L30.8158 14.1212L30.7564 14.0127L30.6962 13.9053L30.6346 13.7981L30.572 13.6919L30.5083 13.5861L30.4438 13.4813L30.3779 13.3769L30.3113 13.2734L30.2434 13.1703L30.1746 13.0682L30.105 12.967L30.034 12.8662L29.9622 12.7663L29.8895 12.6672L29.8157 12.5689L29.7409 12.4712L29.6652 12.3745L29.5886 12.2784L29.511 12.1833L29.4325 12.089L29.353 11.9954L29.2726 11.9027L29.1914 11.8108L29.1093 11.7198L29.0263 11.6296L28.9422 11.5402L28.8576 11.452L28.7717 11.3643L28.6854 11.2778L28.598 11.192L28.5099 11.1072L28.4207 11.0231L28.3312 10.9403L28.2404 10.8582L28.149 10.777L28.057 10.6969L27.9642 10.6177L27.8702 10.5392L27.7758 10.4619L27.6807 10.3856L27.5848 10.3102L27.4882 10.2358L27.391 10.1625L27.2928 10.0899L27.1943 10.0186L27.0949 9.94826L26.9948 9.8788L26.8942 9.81048L26.7926 9.74298L26.691 9.67687L26.5883 9.6115L26.4852 9.54727L26.3813 9.48403L26.277 9.42184L26.1721 9.36081L26.0668 9.30092L25.9605 9.24176L25.8542 9.184L25.747 9.12713L25.6393 9.07142L25.5313 9.01684L25.4226 8.96325L25.3135 8.91073L25.204 8.85943L25.0939 8.80911L24.9836 8.76002L24.8726 8.71191L24.7578 8.66347L24.6497 8.61921L24.5373 8.57437L24.4251 8.53092L24.3119 8.4883L24.1988 8.44706L24.0852 8.40681L23.9713 8.36778L23.8569 8.32973L23.7424 8.293L23.6275 8.25733L23.5123 8.2228L23.397 8.1895L23.2812 8.15723L23.165 8.12607L23.0489 8.09618L22.9327 8.06743L22.8156 8.03974L22.699 8.01332L22.5819 7.98796L22.4647 7.96382L22.3471 7.94078L22.2296 7.91895L22.1119 7.89825L21.9942 7.87875L21.8759 7.86034L21.758 7.84315L21.6398 7.8271L21.5215 7.8122L21.4031 7.79847L21.2848 7.78592L21.1664 7.77452L21.0479 7.76427L20.9293 7.75518L20.8106 7.74725L20.6923 7.74049L20.5739 7.73488L20.455 7.73042L20.3368 7.72714L20.2184 7.72499L20.1001 7.72401L19.9816 7.72417L19.9578 7.72444L19.9952 10.8517L20.0624 10.8514L20.1489 10.8519L20.2354 10.8532L20.322 10.8554L20.4087 10.8584L20.4953 10.8623L20.582 10.8671L20.6688 10.8726L20.7555 10.8791L20.8423 10.8864L20.929 10.8946L21.0157 10.9036L21.1025 10.9135L21.1891 10.9242L21.2757 10.9357L21.3623 10.9482L21.4488 10.9615L21.5353 10.9757L21.6217 10.9907L21.7079 11.0066L21.7941 11.0234L21.8802 11.0409L21.9662 11.0594L22.0521 11.0787L22.1378 11.0989L22.2234 11.1199L22.3087 11.1417L22.394 11.1645L22.4791 11.1881L22.564 11.2125L22.6488 11.2378L22.7333 11.2639L22.8176 11.2909L22.9017 11.3187L22.9857 11.3474L23.0693 11.377L23.1528 11.4073L23.2359 11.4385L23.3189 11.4706L23.4015 11.5035L23.4839 11.5372L23.5659 11.5718L23.6477 11.6071L23.7292 11.6434L23.8104 11.6804L23.8912 11.7182L23.9718 11.7569L24.0519 11.7965L24.1317 11.8368L24.2112 11.8779L24.2903 11.9198L24.3691 11.9626L24.4474 12.0062L24.5254 12.0505L24.603 12.0957L24.6802 12.1416L24.7569 12.1884L24.8331 12.2359L24.909 12.2843L24.9845 12.3333L25.0594 12.3832L25.134 12.4338L25.208 12.4853L25.2816 12.5374L25.3547 12.5903L25.4272 12.6441L25.4994 12.6985L25.5709 12.7537L25.642 12.8097L25.7125 12.8663L25.7825 12.9237L25.8519 12.9819L25.9209 13.0407L25.9892 13.1003L26.057 13.1606L26.1242 13.2216L26.1908 13.2833L26.2569 13.3458L26.3223 13.4088L26.3871 13.4727L26.4513 13.5371L26.5149 13.6023L26.5779 13.6681L26.6402 13.7346L26.7018 13.8018L26.7629 13.8696L26.8232 13.938L26.8829 14.0072L26.942 14.0769L27.0004 14.1473L27.058 14.2183L27.115 14.2899L27.1713 14.3621L27.2268 14.4349L27.2817 14.5084L27.3358 14.5824L27.3892 14.657L27.4418 14.7322L27.4938 14.8079L27.5449 14.8843L27.5953 14.9611L27.6449 15.0386L27.6938 15.1166L27.742 15.195L27.7893 15.2741L27.8359 15.3537L27.8816 15.4337L27.9266 15.5143L27.9707 15.5954L28.0141 15.6769L28.0566 15.759L28.0983 15.8415L28.1392 15.9246L28.1793 16.008L28.2184 16.0919L28.2568 16.1763L28.2943 16.2611L28.331 16.3464L28.3668 16.432L28.4018 16.5181L28.4358 16.6046L28.469 16.6914L28.5013 16.7787L28.5327 16.8663L28.5633 16.9544L28.593 17.0427L28.6217 17.1315L28.6496 17.2205L28.6765 17.3099L28.7026 17.3997L28.7277 17.4898L28.7519 17.5802L28.7752 17.6708L28.7976 17.7618L28.819 17.853L28.8396 17.9446L28.8591 18.0364L28.8778 18.1284L28.8954 18.2207L28.9121 18.3134L28.928 18.4061L28.9428 18.4991L28.9567 18.5924L28.9696 18.6857L28.9816 18.7793L28.9926 18.8732L29.0026 18.9672L29.0117 19.0613L29.0198 19.1556L29.0269 19.25L29.0331 19.3446L29.0382 19.4393L29.0424 19.5341L29.0457 19.6291L29.0479 19.7241L29.0491 19.8192L29.0494 19.9145L29.0486 20.0097L29.0469 20.105L29.0442 20.2004L29.0405 20.2959L29.0358 20.3913L29.0301 20.4868L29.0234 20.5823L29.0157 20.6778L29.007 20.7733L28.9973 20.8688L28.9866 20.9642L28.975 21.0597L28.9623 21.155L28.9486 21.2503L28.9339 21.3455L28.9182 21.4407L28.9016 21.5358L28.8839 21.6308L28.8652 21.7257L28.8455 21.8204L28.8248 21.9151L28.8032 22.0096L28.7805 22.1039L28.7569 22.1981L28.7322 22.2922L28.7066 22.386L28.6799 22.4797L28.6523 22.5731L28.6237 22.6664L28.5941 22.7595L28.5634 22.8524L28.5318 22.9449L28.4992 23.0373L28.4657 23.1294L28.4312 23.2212L28.3956 23.3128L28.3592 23.4041L28.3218 23.4951L28.2833 23.5858L28.2439 23.6761L28.2036 23.7662L28.1623 23.856L28.12 23.9453L28.0767 24.0343L28.0325 24.123L27.9874 24.2113L27.9413 24.2993L27.8942 24.3867L27.8462 24.4739L27.7973 24.5606L27.7475 24.6469L27.6967 24.7327L27.645 24.8182L27.5924 24.9032L27.5389 24.9878L27.4844 25.0718L27.429 25.1554L27.3727 25.2384L27.3156 25.3211L27.2575 25.4032L27.1986 25.4848L27.1387 25.5659L27.078 25.6465L27.0164 25.7265L26.9539 25.8059L26.8905 25.8848L26.8263 25.9632L26.7612 26.0409L26.6953 26.1182L26.6285 26.1947L26.5609 26.2707L26.4925 26.3461L26.4232 26.4209L26.3531 26.495L26.2823 26.5686L26.2105 26.6414L26.138 26.7136L26.0646 26.7851L25.9906 26.8561L25.9156 26.9263L25.84 26.9957L25.7635 27.0646L25.6863 27.1327L25.6083 27.2001L25.5296 27.2669L25.4502 27.3328L25.3699 27.3981L25.289 27.4626L25.2073 27.5263L25.1249 27.5893L25.0419 27.6516L24.9581 27.713L24.8735 27.7737L24.7884 27.8337L24.7026 27.8928L24.6161 27.9511L24.5288 28.0086L24.441 28.0653L24.3525 28.1212L24.2634 28.1763L24.1736 28.2305L24.0833 28.2839L23.9923 28.3364L23.9008 28.388L23.8086 28.4388L23.7158 28.4888L23.6224 28.5379L23.5285 28.5861L23.434 28.6334L23.339 28.6798L23.2434 28.7254L23.1472 28.77L23.0506 28.8137L22.9535 28.8564L22.8558 28.8983L22.7576 28.9392L22.659 28.9793L22.5598 29.0184L22.4602 29.0565L22.3602 29.0937L22.2597 29.13L22.1587 29.1652L22.0573 29.1995L21.9555 29.2329L21.8533 29.2652L21.7507 29.2966L21.6477 29.3271L21.5442 29.3564L21.4405 29.3849L21.3363 29.4123L21.2319 29.4387L21.127 29.4642L21.0219 29.4887L20.9163 29.5121L20.8106 29.5345L20.7045 29.5558L20.5981 29.5762L20.4915 29.5956L20.3845 29.6139L20.2773 29.6312L20.1699 29.6474L20.0622 29.6626L19.9543 29.6768L19.8462 29.6899L19.7379 29.702L19.6293 29.713L19.5207 29.723L19.4118 29.7319L19.3028 29.7398L19.1936 29.7465L19.0842 29.7523L18.9748 29.7569L18.8652 29.7605L18.7555 29.7631L18.6458 29.7645L18.5358 29.765L18.4259 29.7643L18.316 29.7625L18.2059 29.7597L18.0958 29.7558L17.9857 29.7508L17.8755 29.7447L17.7654 29.7376L17.6552 29.7294L17.5451 29.7201L17.4351 29.7097L17.325 29.6983L17.2149 29.6858L17.105 29.6722L16.9951 29.6574L16.8853 29.6417L16.7756 29.6248L16.666 29.6069L16.5565 29.5878L16.4472 29.5678L16.338 29.5466L16.229 29.5242L16.12 29.5009L16.0113 29.4765L15.9028 29.451L15.7944 29.4244L15.6863 29.3968L15.5784 29.3681L15.4707 29.3383L15.3633 29.3074L15.2561 29.2755L15.1491 29.2425L15.0425 29.2084L14.9362 29.1733L14.8301 29.1372L14.7243 29.0999L14.619 29.0616L14.5138 29.0223L14.4091 28.9819L14.3047 28.9405L14.2006 28.8979L14.0969 28.8544L13.9937 28.8099L13.8908 28.7642L13.7883 28.7176L13.6863 28.67L13.5847 28.6213L13.4835 28.5716L13.3828 28.5208L13.2826 28.4691L13.1828 28.4163L13.0835 28.3626L12.9847 28.3079L12.8864 28.2521L12.7886 28.1954L12.6914 28.1376L12.5946 28.0788L12.4985 28.0192L12.4029 27.9585L12.3079 27.8969L12.2135 27.8342L12.1196 27.7706L12.0263 27.7062L11.9337 27.6407L11.8417 27.5743L11.7503 27.5069L11.6595 27.4386L11.5695 27.3694L11.4801 27.2993L11.3913 27.2282L11.3033 27.1563L11.2158 27.0834L11.1292 27.0096L11.0432 26.9349L10.958 26.8594L10.8734 26.783L10.7897 26.7058L10.7067 26.6276L10.6244 26.5486L10.5429 26.4687L10.4623 26.3881L10.3823 26.3065L10.3032 26.2242L10.2248 26.141L10.1474 26.057L10.0707 25.9722L9.99483 25.8866L9.91987 25.8002L9.84565 25.7131L9.77242 25.6251L9.69993 25.5363L9.62843 25.4469L9.55775 25.3567L9.48799 25.2657L9.41913 25.174L9.35109 25.0816L9.28405 24.9884L9.21799 24.8946L9.15276 24.8L9.08852 24.7047L9.02523 24.6089L8.96289 24.5122L8.90151 24.4149L8.84111 24.317L8.78169 24.2184L8.72325 24.1193L8.6658 24.0194L8.60935 23.919L8.55392 23.8178L8.4995 23.7162L8.44609 23.6139L8.39372 23.5111L8.34238 23.4077L8.29208 23.3037L8.24283 23.1992L8.19464 23.0941L8.1475 22.9885L8.10144 22.8824L8.05644 22.7757L8.01252 22.6686L7.96969 22.561L7.92795 22.4529L7.8873 22.3443L7.84775 22.2353L7.80931 22.1258L7.77199 22.0159L7.73577 21.9055L7.70069 21.7947L7.66673 21.6836L7.63389 21.572L7.6022 21.4601L7.57165 21.3477L7.54225 21.235L7.51399 21.122L7.48689 21.0086L7.46095 20.8949L7.43617 20.7808L7.41256 20.6665L7.39012 20.5519L7.36885 20.4369L7.34876 20.3217L7.32986 20.2063L7.31214 20.0906L7.2956 19.9747L7.28027 19.8585L7.26612 19.7421L7.25318 19.6255L7.24142 19.5087L7.23088 19.3917L7.22154 19.2746L7.21341 19.1573L7.20648 19.0398L7.20078 18.9222L7.19628 18.8046L7.19301 18.6868L7.19095 18.5689L7.1901 18.4508L7.19049 18.3327L7.19209 18.2146L7.19493 18.0965L7.19898 17.9782L7.20426 17.8599L7.21078 17.7417L7.21851 17.6234L7.22749 17.5052L7.23768 17.3868L7.24911 17.2687L7.26178 17.1505L7.27566 17.0324L7.29079 16.9143L7.30714 16.7964L7.32472 16.6785L7.34354 16.5607L7.36358 16.4431L7.38486 16.3256L7.40736 16.2082L7.4311 16.0909L7.45605 15.9739L7.48224 15.857L7.50966 15.7403L7.53829 15.6238L7.56814 15.5076L7.59923 15.3915L7.63152 15.2757L7.66503 15.1602L7.69977 15.0449L7.73571 14.9298L7.77287 14.8151L7.81123 14.7007L7.8508 14.5865L7.89158 14.4727L7.93356 14.3592L7.97673 14.2461L8.0211 14.1333L8.06666 14.0209L8.11341 13.9089L8.16135 13.7973L8.21047 13.686L8.26077 13.5753L8.31224 13.4649L8.36489 13.3549L8.4187 13.2455L8.47368 13.1365L8.52981 13.0279L8.5871 12.9199L8.64554 12.8123L8.70513 12.7053L8.76586 12.5988L8.82772 12.4927L8.89072 12.3873L8.95484 12.2825L9.02008 12.1781L9.08645 12.0744L9.15391 11.9712L9.22252 11.8687L9.29213 11.7668L9.36297 11.6655L9.4348 11.5647L9.5077 11.4647L9.58175 11.3654L9.6568 11.2666L9.733 11.1686L9.81019 11.0712L9.88845 10.9746L9.9677 10.8787L10.048 10.7835L10.1294 10.689L10.2118 10.5952L10.2952 10.5023L10.3796 10.41L10.465 10.3186L10.5514 10.2279L10.6388 10.138L10.7271 10.049L10.8165 9.9607L10.9068 9.87323L10.9981 9.78667L11.0902 9.70084L11.1834 9.616L11.2775 9.53189L11.3725 9.44876L11.4683 9.36645L11.5651 9.28504L11.6628 9.20453L11.7614 9.12493L11.8608 9.04622L11.9612 8.96849L12.0624 8.89166L12.1644 8.81582L12.2673 8.74087L12.371 8.66691L12.4755 8.59393L12.5808 8.52192L12.687 8.45091L12.7939 8.38095L12.9016 8.3119L13.0101 8.24391L13.1194 8.17693L13.2294 8.11098L13.3401 8.04606L13.4515 7.9822L13.5638 7.91937L13.6767 7.85761L13.7902 7.79693L13.9045 7.73731L14.0195 7.67878L14.1351 7.62134L14.2514 7.56499L14.3683 7.50974L14.4859 7.45561L14.6041 7.4026L14.7229 7.3507L14.8424 7.29994L14.9623 7.25032L15.0829 7.20183L15.204 7.1545L15.3257 7.10832L15.4479 7.0633L15.5707 7.01946L15.694 6.97678L15.8178 6.93528L15.9421 6.89497L16.0668 6.85585L16.192 6.81792L16.3177 6.78119L16.4439 6.74568L16.5704 6.71136L16.6974 6.67827L16.8248 6.64639L16.9526 6.61574L17.0808 6.58633L17.2093 6.55813L17.3382 6.53118L17.4675 6.50548L17.5971 6.48102L17.727 6.45781L17.8572 6.43585L17.9878 6.41515L18.1185 6.39571L18.2496 6.37754L18.3809 6.36062L18.4299 6.3548ZM18.4853 10.9932L18.4475 7.83154L18.3399 7.84646L18.2242 7.86367L18.1084 7.88202L17.9934 7.90142L17.8782 7.922L17.7635 7.94364L17.6491 7.9664L17.5352 7.99021L17.4214 8.01516L17.308 8.04121L17.1948 8.06833L17.0822 8.09653L16.9696 8.12585L16.8615 8.15513L16.7463 8.18762L16.635 8.2201L16.5243 8.25364L16.4141 8.28817L16.3042 8.32384L16.1947 8.36058L16.0856 8.3983L15.9772 8.437L15.8692 8.47684L15.7616 8.51759L15.6545 8.55948L15.5482 8.60227L15.4419 8.64621L15.3364 8.69104L15.2314 8.73686L15.1272 8.78366L15.0232 8.83152L14.9198 8.88037L14.8173 8.93003L14.7149 8.98084L14.6137 9.03247L14.5126 9.08524L14.4125 9.13867L14.3125 9.19341L14.2135 9.24872L14.1152 9.30509L14.0174 9.36244L13.9204 9.42062L13.8238 9.47985L13.7282 9.53974L13.6331 9.6007L13.5388 9.66247L13.4452 9.72506L13.3523 9.78863L13.2599 9.85311L13.1686 9.91815L13.0778 9.98434L12.9877 10.0513L12.8985 10.119L12.8101 10.1875L12.7223 10.257L12.6354 10.3271L12.5493 10.398L12.4639 10.4699L12.3795 10.5423L12.2958 10.6157L12.2128 10.6899L12.1307 10.7646L12.0496 10.8402L11.969 10.9166L11.8896 10.9935L11.8109 11.0712L11.733 11.1498L11.6561 11.2289L11.5799 11.3088L11.5047 11.3893L11.4304 11.4705L11.3569 11.5524L11.2843 11.635L11.2129 11.7181L11.1421 11.8019L11.0723 11.8865L11.0034 11.9715L10.9355 12.057L10.8684 12.1434L10.8024 12.2303L10.7372 12.3177L10.673 12.4058L10.6098 12.4944L10.5476 12.5834L10.4863 12.6731L10.426 12.7633L10.3666 12.854L10.3083 12.9452L10.251 13.0369L10.1946 13.1293L10.1392 13.2219L10.0848 13.3151L10.0314 13.4088L9.97908 13.5027L9.9277 13.5973L9.87723 13.6923L9.828 13.7876L9.77968 13.8835L9.73242 13.9797L9.68616 14.0762L9.64096 14.1732L9.59676 14.2705L9.55363 14.3682L9.51149 14.4662L9.4705 14.5645L9.43051 14.6632L9.3915 14.7623L9.35357 14.8616L9.31678 14.9612L9.28091 15.0612L9.24627 15.1612L9.21255 15.2617L9.17997 15.3624L9.14839 15.4634L9.11796 15.5645L9.08852 15.6659L9.06023 15.7674L9.03294 15.8693L9.00675 15.9712L8.98164 16.0734L8.95761 16.1758L8.93464 16.2782L8.91274 16.3809L8.89195 16.4837L8.87222 16.5865L8.85356 16.6896L8.83601 16.7927L8.81951 16.8959L8.80411 16.9991L8.78977 17.1025L8.77652 17.2059L8.76435 17.3094L8.75326 17.4129L8.74325 17.5165L8.73432 17.6201L8.72647 17.7236L8.71969 17.8273L8.71398 17.9309L8.70935 18.0344L8.70581 18.1379L8.70333 18.2413L8.70192 18.3447L8.70159 18.4481L8.70232 18.5514L8.70413 18.6545L8.707 18.7576L8.71092 18.8606L8.71592 18.9635L8.72197 19.0662L8.72908 19.1688L8.73725 19.2713L8.74647 19.3736L8.75675 19.4757L8.76807 19.5776L8.78043 19.6794L8.79385 19.781L8.8083 19.8823L8.82379 19.9835L8.84031 20.0843L8.85787 20.185L8.87646 20.2855L8.89606 20.3856L8.91669 20.4855L8.93833 20.5851L8.961 20.6845L8.98466 20.7834L9.00935 20.8822L9.03503 20.9806L9.06171 21.0787L9.08934 21.1764L9.11804 21.2739L9.14764 21.3709L9.17832 21.4676L9.20991 21.564L9.24248 21.6599L9.27605 21.7554L9.31052 21.8505L9.34598 21.9453L9.38243 22.0396L9.41979 22.1334L9.45805 22.2269L9.49731 22.3199L9.53747 22.4124L9.57862 22.5045L9.6206 22.5961L9.66356 22.6872L9.70743 22.7778L9.75213 22.868L9.79782 22.9576L9.84433 23.0468L9.89175 23.1354L9.94007 23.2234L9.98922 23.311L10.0393 23.3979L10.0902 23.4843L10.142 23.5702L10.1946 23.6555L10.248 23.7402L10.3023 23.8243L10.3574 23.9079L10.4133 23.9907L10.4701 24.0731L10.5276 24.1548L10.586 24.2358L10.6451 24.3163L10.705 24.396L10.7657 24.4752L10.8273 24.5537L10.8894 24.6315L10.9524 24.7087L11.0162 24.7852L11.0807 24.861L11.1459 24.936L11.2119 25.0106L11.2785 25.0842L11.3459 25.1573L11.4139 25.2295L11.4827 25.3011L11.5521 25.372L11.6223 25.4421L11.6931 25.5115L11.7646 25.5801L11.8367 25.648L11.9094 25.7151L11.9829 25.7816L12.0569 25.8471L12.1315 25.9119L12.2068 25.976L12.2826 26.0392L12.3591 26.1017L12.4361 26.1633L12.5137 26.2242L12.5919 26.2842L12.6707 26.3436L12.75 26.402L12.8297 26.4596L12.9101 26.5164L12.991 26.5723L13.0724 26.6275L13.1543 26.6818L13.2367 26.7352L13.3196 26.7878L13.403 26.8396L13.4868 26.8905L13.571 26.9406L13.6558 26.9898L13.7409 27.038L13.8266 27.0855L13.9125 27.132L13.999 27.1778L14.0859 27.2226L14.173 27.2665L14.2607 27.3096L14.3488 27.3517L14.4371 27.393L14.5258 27.4334L14.6149 27.4729L14.7042 27.5114L14.7939 27.5491L14.884 27.5859L14.9744 27.6217L15.0649 27.6567L15.1559 27.6907L15.2471 27.7238L15.3386 27.7561L15.4303 27.7873L15.5223 27.8178L15.6145 27.8471L15.7069 27.8757L15.7996 27.9033L15.8925 27.9299L15.9855 27.9557L16.0788 27.9805L16.1722 28.0045L16.2658 28.0274L16.3596 28.0494L16.4535 28.0705L16.5476 28.0907L16.6418 28.1099L16.7361 28.1282L16.8306 28.1455L16.925 28.162L17.0197 28.1775L17.1143 28.192L17.2091 28.2057L17.3039 28.2183L17.3988 28.2301L17.4937 28.2409L17.5886 28.2508L17.6836 28.2597L17.7786 28.2678L17.8736 28.2748L17.9686 28.281L18.0635 28.2862L18.1585 28.2905L18.2535 28.2939L18.3483 28.2963L18.4431 28.2978L18.5378 28.2984L18.6325 28.298L18.7271 28.2967L18.8216 28.2946L18.9159 28.2915L19.0103 28.2875L19.1044 28.2825L19.1984 28.2767L19.2922 28.2699L19.386 28.2622L19.4795 28.2536L19.5729 28.2441L19.6662 28.2337L19.7592 28.2224L19.8521 28.2102L19.9447 28.1972L20.0372 28.1832L20.1294 28.1684L20.2212 28.1526L20.313 28.136L20.4045 28.1184L20.4957 28.1001L20.5867 28.0808L20.6773 28.0607L20.7676 28.0397L20.8577 28.0178L20.9475 27.9951L21.037 27.9716L21.1261 27.9471L21.215 27.9218L21.3034 27.8957L21.3915 27.8688L21.4793 27.841L21.5668 27.8124L21.6538 27.7829L21.7404 27.7526L21.8267 27.7215L21.9125 27.6896L21.998 27.6569L22.083 27.6234L22.1677 27.589L22.2519 27.5539L22.3356 27.518L22.419 27.4813L22.5018 27.4439L22.5842 27.4056L22.6662 27.3665L22.7475 27.3269L22.8287 27.2862L22.9091 27.245L22.9892 27.2028L23.0685 27.1601L23.1475 27.1166L23.226 27.0723L23.3039 27.0273L23.3813 26.9816L23.4582 26.9352L23.5344 26.8881L23.6102 26.8402L23.6853 26.7918L23.7599 26.7425L23.834 26.6925L23.9074 26.642L23.9802 26.5908L24.0526 26.5388L24.1242 26.4863L24.1952 26.4331L24.2658 26.3792L24.3354 26.3247L24.4047 26.2695L24.4733 26.2137L24.541 26.1574L24.6085 26.1002L24.675 26.0427L24.7409 25.9846L24.8064 25.9256L24.8709 25.8664L24.9349 25.8064L24.9982 25.7459L25.0607 25.6848L25.1227 25.6232L25.184 25.561L25.2445 25.4982L25.3042 25.435L25.3633 25.3712L25.4218 25.3068L25.4793 25.2421L25.5364 25.1767L25.5926 25.1109L25.648 25.0446L25.7028 24.9777L25.7568 24.9106L25.81 24.8428L25.8626 24.7746L25.9144 24.7059L25.9653 24.6368L26.0155 24.5675L26.065 24.4973L26.1137 24.4271L26.1616 24.3563L26.2089 24.285L26.255 24.2136L26.3007 24.1416L26.3455 24.0692L26.3895 23.9965L26.4327 23.9235L26.4752 23.8499L26.5167 23.7764L26.5576 23.7021L26.5976 23.6277L26.6367 23.553L26.6752 23.4777L26.7127 23.4026L26.7495 23.3267L26.7853 23.251L26.8206 23.1745L26.8547 23.0982L26.8883 23.0212L26.921 22.9443L26.9527 22.867L26.9837 22.7895L27.0139 22.7117L27.0431 22.6338L27.0717 22.5555L27.0993 22.4772L27.1261 22.3986L27.152 22.3198L27.1772 22.2408L27.2015 22.1617L27.2249 22.0825L27.2475 22.0029L27.2692 21.9234L27.2902 21.8436L27.3102 21.7638L27.3294 21.6839L27.3478 21.6037L27.3653 21.5235L27.382 21.4432L27.3978 21.363L27.4128 21.2825L27.4269 21.2018L27.4402 21.1214L27.4526 21.0407L27.4642 20.9599L27.4749 20.8793L27.4848 20.7986L27.4939 20.7176L27.502 20.6372L27.5095 20.5561L27.516 20.4753L27.5216 20.3947L27.5264 20.3139L27.5304 20.2332L27.5335 20.1526L27.5358 20.0718L27.5372 19.9914L27.5379 19.9108L27.5377 19.8303L27.5367 19.7499L27.5348 19.6698L27.532 19.5896L27.5285 19.5095L27.5241 19.4297L27.5189 19.3497L27.5129 19.2699L27.5062 19.1905L27.4985 19.1109L27.49 19.0318L27.4807 18.9525L27.4706 18.8736L27.4597 18.7949L27.448 18.7161L27.4355 18.6378L27.4222 18.5596L27.4081 18.4817L27.3932 18.4039L27.3774 18.3261L27.3609 18.2489L27.3437 18.1719L27.3256 18.095L27.3067 18.0182L27.2872 17.9421L27.2668 17.8658L27.2456 17.7901L27.2237 17.7145L27.201 17.6394L27.1776 17.5644L27.1534 17.4897L27.1285 17.4155L27.1028 17.3415L27.0763 17.2676L27.0492 17.1944L27.0212 17.1213L26.9926 17.0488L26.9633 16.9764L26.9332 16.9043L26.9024 16.8329L26.8708 16.7615L26.8387 16.6907L26.8058 16.6204L26.7721 16.5502L26.7377 16.4804L26.7028 16.4112L26.667 16.3423L26.6308 16.274L26.5937 16.206L26.556 16.1382L26.5177 16.0712L26.4786 16.0044L26.4389 15.9383L26.3985 15.8723L26.3577 15.8071L26.316 15.7421L26.2738 15.6777L26.231 15.6138L26.1875 15.5504L26.1433 15.4874L26.0986 15.4249L26.0534 15.3631L26.0074 15.3015L25.961 15.2406L25.9138 15.1801L25.8663 15.1203L25.818 15.0608L25.7691 15.002L25.7197 14.9437L25.6698 14.8858L25.6195 14.8287L25.5683 14.7719L25.5169 14.7159L25.4648 14.6603L25.4123 14.6054L25.359 14.5509L25.3055 14.4971L25.2512 14.4437L25.1966 14.3911L25.1416 14.339L25.0861 14.2875L25.0299 14.2365L24.9733 14.1863L24.9163 14.1366L24.8587 14.0874L24.8011 14.0391L24.7426 13.9911L24.6838 13.9439L24.6246 13.8973L24.5649 13.8512L24.5048 13.8058L24.4445 13.7612L24.3835 13.7171L24.3221 13.6734L24.2606 13.6308L24.1984 13.5885L24.1362 13.5472L24.0734 13.5063L24.0103 13.466L23.9467 13.4264L23.883 13.3877L23.8187 13.3494L23.7543 13.3119L23.6893 13.2749L23.6244 13.2388L23.5589 13.2033L23.4931 13.1684L23.4271 13.1342L23.3608 13.1008L23.2942 13.0679L23.2272 13.0358L23.1602 13.0043L23.093 12.9737L23.025 12.9435L22.9574 12.9142L22.8893 12.8855L22.8208 12.8575L22.7523 12.8302L22.6837 12.8037L22.6148 12.7779L22.5454 12.7526L22.4762 12.7282L22.4066 12.7044L22.3368 12.6813L22.2672 12.659L22.1971 12.6374L22.1271 12.6164L22.0565 12.5961L21.9862 12.5767L21.9157 12.5579L21.845 12.5398L21.7742 12.5223L21.7032 12.5057L21.6322 12.4897L21.5613 12.4745L21.4901 12.4599L21.4186 12.446L21.3476 12.433L21.2761 12.4206L21.2048 12.4089L21.1331 12.3978L21.0619 12.3876L20.9901 12.3779L20.9187 12.3692L20.8471 12.361L20.7756 12.3536L20.7041 12.3468L20.6324 12.3408L20.5611 12.3355L20.4893 12.3309L20.4179 12.327L20.3467 12.3238L20.2749 12.3212L20.2037 12.3194L20.1325 12.3184L20.0613 12.318L20.0127 12.3181L20.0495 15.4071L20.0715 15.4072L20.1124 15.4077L20.1534 15.4087L20.1945 15.41L20.2356 15.4119L20.2767 15.4141L20.3179 15.4167L20.3591 15.4199L20.4003 15.4234L20.4417 15.4273L20.483 15.4316L20.5243 15.4364L20.5657 15.4416L20.607 15.4473L20.6484 15.4533L20.6898 15.4599L20.7312 15.4668L20.7725 15.4742L20.8139 15.482L20.8552 15.4902L20.8965 15.499L20.9379 15.5081L20.9792 15.5176L21.0203 15.5276L21.0616 15.538L21.1027 15.5489L21.1438 15.5602L21.1849 15.5719L21.2258 15.5841L21.2667 15.5967L21.3076 15.6098L21.3484 15.6233L21.389 15.6372L21.4297 15.6515L21.4702 15.6663L21.5106 15.6815L21.5509 15.6971L21.5912 15.7133L21.6312 15.7298L21.6712 15.7467L21.7112 15.7641L21.7509 15.782L21.7906 15.8002L21.8301 15.819L21.8694 15.838L21.9087 15.8576L21.9477 15.8776L21.9866 15.898L22.0254 15.9189L22.064 15.9401L22.1024 15.9618L22.1407 15.9839L22.1787 16.0064L22.2166 16.0294L22.2543 16.0528L22.2918 16.0766L22.3291 16.1007L22.3662 16.1254L22.4031 16.1505L22.4398 16.1759L22.4763 16.2018L22.5126 16.2281L22.5486 16.2547L22.5844 16.2818L22.62 16.3093L22.6553 16.3372L22.6904 16.3655L22.7252 16.3941L22.7598 16.4233L22.7941 16.4527L22.8282 16.4826L22.862 16.5129L22.8955 16.5435L22.9287 16.5746L22.9616 16.606L22.9944 16.6378L23.0267 16.67L23.0588 16.7025L23.0906 16.7354L23.122 16.7687L23.1532 16.8024L23.184 16.8365L23.2146 16.8708L23.2448 16.9056L23.2747 16.9407L23.3043 16.9761L23.3335 17.012L23.3623 17.0481L23.3909 17.0846L23.4191 17.1215L23.4469 17.1587L23.4744 17.1962L23.5014 17.234L23.5282 17.2722L23.5546 17.3108L23.5806 17.3496L23.6063 17.3887L23.6316 17.4282L23.6564 17.468L23.6809 17.5081L23.705 17.5485L23.7286 17.5892L23.752 17.6302L23.7748 17.6715L23.7973 17.7131L23.8194 17.7549L23.841 17.7971L23.8623 17.8395L23.8831 17.8822L23.9035 17.9252L23.9234 17.9684L23.943 18.0119L23.9621 18.0557L23.9807 18.0997L23.999 18.144L24.0167 18.1885L24.034 18.2333L24.0509 18.2783L24.0673 18.3235L24.0833 18.369L24.0988 18.4146L24.1138 18.4605L24.1283 18.5067L24.1424 18.553L24.156 18.5996L24.1691 18.6464L24.1818 18.6932L24.194 18.7404L24.2056 18.7877L24.2169 18.8353L24.2276 18.8829L24.2378 18.9308L24.2475 18.9789L24.2567 19.027L24.2654 19.0754L24.2737 19.1239L24.2814 19.1725L24.2886 19.2214L24.2953 19.2703L24.3015 19.3194L24.3072 19.3686L24.3124 19.418L24.317 19.4674L24.3211 19.517L24.3247 19.5667L24.3278 19.6165L24.3303 19.6664L24.3323 19.7164L24.3339 19.7664L24.3348 19.8166L24.3353 19.8668L24.3351 19.9171L24.3345 19.9675L24.3334 20.018L24.3316 20.0684L24.3294 20.119L24.3266 20.1696L24.3233 20.2202L24.3194 20.2709L24.315 20.3216L24.31 20.3723L24.3046 20.423L24.2985 20.4738L24.2919 20.5246L24.2848 20.5754L24.2771 20.6261L24.2689 20.6768L24.2601 20.7276L24.2507 20.7783L24.2409 20.829L24.2305 20.8797L24.2194 20.9303L24.2079 20.9809L24.1958 21.0314L24.1831 21.0819L24.1699 21.1324L24.1562 21.1827L24.1419 21.233L24.127 21.2832L24.1116 21.3333L24.0957 21.3834L24.0792 21.4333L24.0621 21.4832L24.0446 21.533L24.0264 21.5826L24.0076 21.6321L23.9884 21.6815L23.9686 21.7308L23.9483 21.7799L23.9274 21.8289L23.906 21.8778L23.8839 21.9265L23.8614 21.975L23.8383 22.0234L23.8147 22.0717L23.7906 22.1197L23.7658 22.1676L23.7406 22.2153L23.7148 22.2627L23.6885 22.31L23.6617 22.3571L23.6343 22.404L23.6063 22.4507L23.578 22.4971L23.549 22.5434L23.5195 22.5894L23.4895 22.6352L23.4589 22.6807L23.4279 22.726L23.3963 22.7711L23.3642 22.8158L23.3316 22.8603L23.2985 22.9046L23.2648 22.9485L23.2307 22.9922L23.1961 23.0357L23.1609 23.0788L23.1253 23.1216L23.0892 23.1641L23.0526 23.2063L23.0154 23.2482L22.9778 23.2898L22.9397 23.3311L22.9011 23.372L22.8621 23.4126L22.8225 23.4529L22.7825 23.4929L22.742 23.5324L22.7011 23.5716L22.6596 23.6105L22.6177 23.649L22.5754 23.6871L22.5326 23.7249L22.4894 23.7623L22.4457 23.7993L22.4016 23.8358L22.357 23.8721L22.3119 23.9079L22.2665 23.9433L22.2206 23.9783L22.1744 24.0129L22.1276 24.0471L22.0805 24.0808L22.0329 24.1141L21.985 24.1471L21.9366 24.1795L21.8879 24.2115L21.8387 24.243L21.7892 24.2742L21.7392 24.3049L21.6889 24.3351L21.6382 24.3648L21.5871 24.3941L21.5357 24.4229L21.4838 24.4512L21.4317 24.4791L21.3791 24.5064L21.3263 24.5333L21.273 24.5597L21.2195 24.5856L21.1656 24.611L21.1113 24.6359L21.0568 24.6602L21.0019 24.684L20.9467 24.7074L20.8912 24.7303L20.8354 24.7525L20.7792 24.7743L20.7228 24.7956L20.666 24.8163L20.6091 24.8365L20.5518 24.8561L20.4943 24.8752L20.4365 24.8937L20.3784 24.9117L20.3201 24.9291L20.2615 24.946L20.2027 24.9623L20.1436 24.9781L20.0843 24.9932L20.0248 25.0079L19.965 25.0219L19.905 25.0354L19.8448 25.0482L19.7845 25.0606L19.7239 25.0723L19.6631 25.0834L19.6021 25.094L19.5409 25.1039L19.4797 25.1133L19.4181 25.122L19.3565 25.1302L19.2947 25.1378L19.2328 25.1448L19.1707 25.1511L19.1084 25.1569L19.0461 25.1619L18.9835 25.1665L18.9209 25.1704L18.8582 25.1737L18.7954 25.1764L18.7324 25.1785L18.6693 25.1799L18.6063 25.1807L18.5431 25.1809L18.4798 25.1805L18.4165 25.1795L18.3531 25.1777L18.2897 25.1754L18.2262 25.1725L18.1626 25.1689L18.099 25.1647L18.0354 25.1599L17.9718 25.1544L17.9082 25.1483L17.8446 25.1416L17.7809 25.1341L17.7173 25.1261L17.6537 25.1174L17.5901 25.1082L17.5265 25.0982L17.463 25.0877L17.3995 25.0764L17.3361 25.0646L17.2727 25.0521L17.2093 25.039L17.1461 25.0252L17.0829 25.0107L17.0198 24.9957L16.9567 24.9801L16.8938 24.9637L16.8311 24.9467L16.7683 24.9291L16.7058 24.9108L16.6433 24.8919L16.5809 24.8724L16.5188 24.8523L16.4567 24.8315L16.3948 24.81L16.333 24.788L16.2714 24.7652L16.2101 24.7419L16.1488 24.7179L16.0878 24.6933L16.0269 24.6681L15.9663 24.6422L15.9059 24.6157L15.8456 24.5886L15.7856 24.5609L15.7257 24.5325L15.6662 24.5036L15.6069 24.4739L15.5479 24.4437L15.4891 24.4129L15.4305 24.3815L15.3722 24.3494L15.3142 24.3168L15.2564 24.2835L15.199 24.2496L15.1419 24.2151L15.0851 24.18L15.0285 24.1444L14.9722 24.1081L14.9163 24.0712L14.8607 24.0338L14.8056 23.9957L14.7507 23.9571L14.6961 23.9179L14.6419 23.8781L14.588 23.8377L14.5346 23.7968L14.4815 23.7552L14.4288 23.7132L14.3764 23.6706L14.3245 23.6274L14.2729 23.5836L14.2218 23.5392L14.1711 23.4944L14.1208 23.449L14.0709 23.403L14.0214 23.3565L13.9724 23.3095L13.9238 23.262L13.8757 23.2139L13.828 23.1653L13.7808 23.1161L13.734 23.0665L13.6877 23.0163L13.642 22.9656L13.5966 22.9145L13.5518 22.8628L13.5075 22.8107L13.4636 22.758L13.4203 22.7048L13.3775 22.6512L13.3352 22.5971L13.2934 22.5425L13.2521 22.4875L13.2115 22.432L13.1713 22.376L13.1316 22.3196L13.0926 22.2627L13.054 22.2054L13.0161 22.1477L12.9788 22.0895L12.9419 22.0309L12.9057 21.9719L12.87 21.9125L12.8349 21.8526L12.8005 21.7923L12.7666 21.7317L12.7332 21.6707L12.7006 21.6092L12.6685 21.5474L12.637 21.4852L12.6062 21.4227L12.576 21.3597L12.5464 21.2964L12.5174 21.2328L12.4891 21.1688L12.4614 21.1044L12.4344 21.0398L12.408 20.9747L12.3823 20.9094L12.3572 20.8437L12.3329 20.7778L12.3091 20.7115L12.286 20.645L12.2636 20.5782L12.2419 20.511L12.2209 20.4436L12.2005 20.3759L12.1808 20.3079L12.1618 20.2397L12.1436 20.1712L12.126 20.1025L12.1091 20.0335L12.093 19.9644L12.0775 19.8949L12.0627 19.8253L12.0487 19.7554L12.0353 19.6854L12.0227 19.6151L12.0108 19.5446L11.9997 19.474L11.9892 19.4032L11.9795 19.3322L11.9706 19.2611L11.9623 19.1898L11.9548 19.1183L11.9481 19.0467L11.9421 18.9749L11.9368 18.9031L11.9322 18.8311L11.9284 18.759L11.9254 18.6869L11.9231 18.6145L11.9216 18.5421L11.9209 18.4697L11.9208 18.3971L11.9215 18.3245L11.9231 18.2518L11.9253 18.1791L11.9284 18.1063L11.9322 18.0335L11.9367 17.9606L11.942 17.8877L11.9481 17.8148L11.9549 17.7419L11.9625 17.669L11.9709 17.5961L11.9801 17.5232L11.99 17.4504L12.0007 17.3776L12.0122 17.3048L12.0244 17.232L12.0374 17.1593L12.0512 17.0867L12.0658 17.0141L12.0811 16.9416L12.0972 16.8692L12.114 16.7969L12.1316 16.7247L12.15 16.6525L12.1693 16.5805L12.1892 16.5087L12.2099 16.4369L12.2314 16.3653L12.2536 16.2938L12.2766 16.2225L12.3004 16.1513L12.325 16.0804L12.3503 16.0095L12.3763 15.9389L12.4031 15.8685L12.4308 15.7983L12.4591 15.7282L12.4882 15.6584L12.5181 15.5888L12.5487 15.5194L12.5801 15.4503L12.6122 15.3814L12.6451 15.3128L12.6787 15.2444L12.713 15.1763L12.7481 15.1085L12.784 15.041L12.8205 14.9737L12.8579 14.9068L12.8959 14.8401L12.9346 14.7737L12.9741 14.7078L13.0144 14.6421L13.0553 14.5767L13.097 14.5118L13.1394 14.447L13.1825 14.3827L13.2262 14.3188L13.2708 14.2553L13.316 14.1921L13.3619 14.1293L13.4085 14.0669L13.4557 14.0049L13.5037 13.9434L13.5524 13.8822L13.6018 13.8215L13.6519 13.7611L13.7025 13.7013L13.7539 13.6418L13.8059 13.5828L13.8586 13.5243L13.912 13.4662L13.966 13.4087L14.0207 13.3516L14.076 13.295L14.1319 13.2388L14.1885 13.1832L14.2457 13.128L14.3035 13.0735L14.362 13.0194L14.421 12.9658L14.4807 12.9128L14.5409 12.8603L14.6019 12.8084L14.6633 12.7569L14.7254 12.7061L14.788 12.6559L14.8513 12.6061L14.915 12.557L14.9794 12.5085L15.0443 12.4606L15.1098 12.4132L15.1759 12.3665L15.2424 12.3203L15.3095 12.2748L15.3772 12.2298L15.4454 12.1856L15.5141 12.142L15.5833 12.0989L15.653 12.0566L15.7233 12.0148L15.794 11.9738L15.8652 11.9333L15.9369 11.8936L16.009 11.8545L16.0817 11.8161L16.1547 11.7784L16.2283 11.7413L16.3023 11.705L16.3767 11.6693L16.4516 11.6344L16.5269 11.6001L16.6026 11.5665L16.6787 11.5337L16.7554 11.5016L16.8323 11.4702L16.9096 11.4396L16.9873 11.4096L17.0654 11.3804L17.1439 11.3519L17.2227 11.3243L17.302 11.2973L17.3814 11.2711L17.4614 11.2457L17.5415 11.2209L17.6221 11.1971L17.7029 11.1739L17.7841 11.1516L17.8655 11.13L17.9473 11.1091L18.0293 11.0891L18.1116 11.0698L18.1942 11.0514L18.277 11.0337L18.3602 11.0169L18.4435 11.0009L18.4853 10.9932ZM19.5094 16.9334L18.5589 17.1587L18.5031 12.4873L18.4583 12.4973L18.3909 12.5131L18.3235 12.5295L18.2566 12.5466L18.1898 12.5642L18.1234 12.5826L18.057 12.6016L17.9913 12.6211L17.9254 12.6414L17.8603 12.6621L17.7951 12.6836L17.7303 12.7057L17.6658 12.7284L17.6016 12.7516L17.5379 12.7754L17.4743 12.8L17.4111 12.825L17.3482 12.8506L17.2855 12.8769L17.2235 12.9036L17.1616 12.9311L17.1002 12.959L17.039 12.9876L16.9783 13.0167L16.9177 13.0464L16.8579 13.0766L16.7982 13.1073L16.739 13.1387L16.6802 13.1705L16.6218 13.2029L16.5637 13.2359L16.5063 13.2693L16.4488 13.3034L16.3921 13.3378L16.3358 13.3728L16.2799 13.4084L16.2243 13.4444L16.1693 13.481L16.1147 13.5181L16.0606 13.5555L16.007 13.5935L15.9536 13.632L15.9008 13.6711L15.8485 13.7105L15.7967 13.7504L15.7454 13.7907L15.6946 13.8315L15.6441 13.8728L15.5941 13.9146L15.5448 13.9567L15.4959 13.9993L15.4475 14.0423L15.3996 14.0857L15.3522 14.1297L15.3053 14.1739L15.259 14.2185L15.213 14.2637L15.1678 14.3091L15.123 14.355L15.0788 14.4011L15.0349 14.4479L14.9918 14.4948L14.9492 14.5422L14.907 14.59L14.8655 14.6379L14.8245 14.6864L14.7841 14.735L14.7441 14.7843L14.7049 14.8336L14.666 14.8835L14.6279 14.9336L14.5903 14.9839L14.5531 15.0346L14.5167 15.0855L14.4807 15.1369L14.4454 15.1885L14.4106 15.2404L14.3765 15.2925L14.3429 15.3448L14.3099 15.3976L14.2775 15.4505L14.2456 15.5038L14.2144 15.5571L14.1838 15.6108L14.1537 15.6647L14.1243 15.7188L14.0954 15.7731L14.0672 15.8277L14.0395 15.8826L14.0126 15.9374L13.9861 15.9927L13.9603 16.0481L13.9351 16.1036L13.9105 16.1593L13.8865 16.2153L13.8631 16.2713L13.8404 16.3275L13.8183 16.3839L13.7967 16.4405L13.7758 16.497L13.7555 16.5539L13.7358 16.6108L13.7168 16.6678L13.6983 16.7249L13.6805 16.7823L13.6632 16.8396L13.6467 16.897L13.6307 16.9546L13.6153 17.0123L13.6006 17.07L13.5865 17.1277L13.573 17.1856L13.5602 17.2435L13.5479 17.3015L13.5363 17.3594L13.5253 17.4174L13.5149 17.4756L13.5051 17.5336L13.496 17.5917L13.4874 17.65L13.4795 17.708L13.4722 17.7662L13.4656 17.8242L13.4595 17.8824L13.454 17.9407L13.4492 17.9987L13.4449 18.0568L13.4413 18.1149L13.4383 18.1728L13.4359 18.2307L13.4341 18.2886L13.4329 18.3465L13.4322 18.4043L13.4323 18.4619L13.4329 18.5195L13.4341 18.5771L13.436 18.6346L13.4383 18.6919L13.4413 18.7492L13.4449 18.8063L13.4492 18.8633L13.4539 18.9203L13.4593 18.9771L13.4652 19.0338L13.4717 19.0902L13.4788 19.1468L13.4865 19.2029L13.4948 19.2591L13.5037 19.315L13.5131 19.3708L13.523 19.4265L13.5336 19.4819L13.5447 19.5372L13.5564 19.5922L13.5686 19.6472L13.5814 19.7018L13.5948 19.7564L13.6086 19.8105L13.6232 19.8648L13.6381 19.9185L13.6536 19.9723L13.6697 20.0256L13.6862 20.0789L13.7034 20.1318L13.721 20.1845L13.7393 20.2371L13.758 20.2893L13.7772 20.3411L13.7969 20.3929L13.8172 20.4444L13.838 20.4955L13.8593 20.5464L13.8809 20.597L13.9033 20.6474L13.9261 20.6975L13.9493 20.7472L13.9731 20.7966L13.9972 20.8457L14.0221 20.8947L14.0471 20.9432L14.0728 20.9913L14.0989 21.0393L14.1256 21.0868L14.1526 21.1341L14.1801 21.1811L14.208 21.2276L14.2365 21.2739L14.2652 21.3198L14.2945 21.3653L14.3243 21.4105L14.3544 21.4553L14.385 21.4999L14.4159 21.5439L14.4473 21.5877L14.4792 21.6311L14.5113 21.674L14.5441 21.7167L14.5771 21.759L14.6105 21.8008L14.6443 21.8423L14.6785 21.8834L14.713 21.924L14.748 21.9643L14.7833 22.0043L14.8189 22.0437L14.8551 22.0828L14.8914 22.1213L14.9282 22.1597L14.9653 22.1975L15.0027 22.2349L15.0405 22.2719L15.0786 22.3085L15.1171 22.3446L15.1558 22.3803L15.1949 22.4156L15.2343 22.4504L15.274 22.4848L15.314 22.5187L15.3542 22.5523L15.3948 22.5853L15.4357 22.618L15.4769 22.6501L15.5183 22.6818L15.56 22.713L15.602 22.7439L15.6442 22.7742L15.6867 22.8041L15.7294 22.8336L15.7723 22.8625L15.8156 22.891L15.8589 22.919L15.9026 22.9466L15.9466 22.9737L15.9906 23.0002L16.0349 23.0264L16.0795 23.0521L16.1241 23.0772L16.169 23.1019L16.2143 23.1262L16.2596 23.15L16.305 23.1732L16.3506 23.1959L16.3965 23.2183L16.4424 23.24L16.4887 23.2614L16.5349 23.2823L16.5813 23.3025L16.6279 23.3224L16.6747 23.3418L16.7215 23.3607L16.7685 23.3791L16.8156 23.397L16.8629 23.4144L16.9101 23.4313L16.9576 23.4478L17.0051 23.4636L17.0527 23.4791L17.1004 23.4941L17.1482 23.5086L17.1961 23.5225L17.244 23.536L17.2921 23.5489L17.3401 23.5614L17.3882 23.5734L17.4364 23.5849L17.4845 23.5959L17.5328 23.6063L17.5811 23.6164L17.6294 23.6259L17.6778 23.635L17.7261 23.6435L17.7745 23.6516L17.8229 23.6591L17.8713 23.6662L17.9196 23.6728L17.968 23.6788L18.0163 23.6845L18.0647 23.6896L18.113 23.6942L18.1613 23.6984L18.2096 23.7021L18.2577 23.7053L18.306 23.708L18.3541 23.7102L18.4021 23.712L18.4502 23.7132L18.4981 23.714L18.5459 23.7143L18.5937 23.7142L18.6414 23.7136L18.6891 23.7125L18.7367 23.7109L18.7841 23.7089L18.8314 23.7064L18.8788 23.7035L18.9258 23.7L18.9729 23.6962L19.0197 23.6918L19.0666 23.6871L19.1133 23.6818L19.1597 23.6761L19.2062 23.67L19.2524 23.6634L19.2984 23.6563L19.3445 23.6489L19.3903 23.6409L19.4359 23.6326L19.4814 23.6238L19.5268 23.6145L19.5718 23.6049L19.6166 23.5948L19.6615 23.5842L19.7061 23.5733L19.7505 23.562L19.7947 23.5502L19.8387 23.538L19.8826 23.5253L19.9261 23.5123L19.9694 23.4989L20.0127 23.485L20.0556 23.4708L20.0983 23.4562L20.1408 23.4411L20.183 23.4257L20.2252 23.4098L20.267 23.3936L20.3085 23.377L20.3498 23.3601L20.3909 23.3426L20.4318 23.3249L20.4722 23.3068L20.5126 23.2883L20.5526 23.2695L20.5922 23.2503L20.6318 23.2307L20.6709 23.2108L20.7099 23.1905L20.7486 23.1698L20.7869 23.1489L20.825 23.1276L20.8628 23.1059L20.9003 23.0839L20.9375 23.0616L20.9743 23.0389L21.0109 23.0159L21.0472 22.9927L21.0833 22.9691L21.1189 22.9452L21.1543 22.9209L21.1893 22.8963L21.2239 22.8715L21.2583 22.8463L21.2924 22.8209L21.3261 22.7951L21.3595 22.7691L21.3927 22.7427L21.4253 22.7162L21.4577 22.6894L21.4897 22.6622L21.5214 22.6348L21.5528 22.6072L21.5838 22.5792L21.6145 22.551L21.6447 22.5227L21.6747 22.4939L21.7043 22.465L21.7336 22.4358L21.7625 22.4065L21.7909 22.3768L21.819 22.347L21.8469 22.3168L21.8742 22.2866L21.9013 22.256L21.928 22.2252L21.9542 22.1944L21.9803 22.1631L22.0057 22.1319L22.0309 22.1003L22.0557 22.0686L22.08 22.0367L22.1041 22.0046L22.1277 21.9724L22.151 21.9399L22.1739 21.9072L22.1963 21.8746L22.2184 21.8415L22.2402 21.8085L22.2614 21.7752L22.2823 21.7419L22.3029 21.7083L22.323 21.6746L22.3428 21.6408L22.3621 21.6069L22.381 21.5728L22.3996 21.5385L22.4177 21.5043L22.4355 21.4699L22.4529 21.4354L22.4699 21.4008L22.4864 21.3659L22.5026 21.3311L22.5184 21.2962L22.5337 21.2613L22.5487 21.2261L22.5632 21.191L22.5775 21.1556L22.5912 21.1205L22.6046 21.0848L22.6175 21.0497L22.6301 21.014L22.6423 20.9783L22.654 20.9428L22.6654 20.9072L22.6764 20.8716L22.687 20.8356L22.6971 20.8001L22.707 20.764L22.7163 20.7285L22.7253 20.6925L22.7338 20.6565L22.742 20.6207L22.7498 20.585L22.7572 20.5489L22.7642 20.5131L22.7708 20.477L22.777 20.4414L22.7828 20.4055L22.7883 20.3696L22.7933 20.3337L22.7979 20.2979L22.8022 20.2622L22.8061 20.2266L22.8095 20.1907L22.8127 20.1551L22.8154 20.1194L22.8177 20.0838L22.8197 20.0483L22.8213 20.0129L22.8224 19.9776L22.8232 19.9421L22.8237 19.9067L22.8238 19.8716L22.8235 19.8365L22.8228 19.8015L22.8218 19.7665L22.8203 19.7314L22.8185 19.697L22.8164 19.6618L22.8139 19.6275L22.811 19.5931L22.8078 19.5584L22.8042 19.5241L22.8003 19.4901L22.7959 19.4557L22.7913 19.422L22.7863 19.388L22.781 19.3546L22.7752 19.3208L22.7692 19.2872L22.7629 19.254L22.7562 19.2209L22.7491 19.1877L22.7417 19.1549L22.734 19.122L22.7259 19.0895L22.7176 19.0572L22.7088 19.0246L22.6999 18.9927L22.6905 18.9605L22.6808 18.9288L22.6708 18.8971L22.6605 18.8657L22.6499 18.8344L22.6389 18.8031L22.6278 18.7724L22.6162 18.7417L22.6044 18.7109L22.5922 18.6806L22.5798 18.6502L22.5672 18.6205L22.5541 18.5905L22.5409 18.5609L22.5273 18.5316L22.5134 18.5024L22.4993 18.4734L22.4849 18.4446L22.4702 18.416L22.4553 18.3876L22.44 18.3595L22.4246 18.3316L22.4088 18.3039L22.3928 18.2764L22.3766 18.2491L22.3601 18.2221L22.3433 18.1952L22.3263 18.1688L22.309 18.1424L22.2916 18.1163L22.2738 18.0904L22.2559 18.0649L22.2377 18.0394L22.2193 18.0143L22.2007 17.9894L22.1818 17.9648L22.1628 17.9404L22.1435 17.9162L22.124 17.8924L22.1043 17.8688L22.0844 17.8454L22.0643 17.8222L22.0441 17.7994L22.0235 17.7768L22.0028 17.7545L21.982 17.7323L21.961 17.7105L21.9397 17.689L21.9182 17.6676L21.8967 17.6467L21.8749 17.626L21.8531 17.6055L21.8308 17.5853L21.8087 17.5654L21.7863 17.5457L21.7638 17.5263L21.741 17.5072L21.7182 17.4885L21.6952 17.4699L21.6721 17.4516L21.6488 17.4336L21.6254 17.4159L21.6019 17.3985L21.5782 17.3814L21.5544 17.3645L21.5306 17.348L21.5066 17.3316L21.4825 17.3157L21.4582 17.3L21.4338 17.2845L21.4095 17.2694L21.3848 17.2545L21.3603 17.2399L21.3356 17.2257L21.3108 17.2117L21.2858 17.1979L21.2609 17.1845L21.2359 17.1713L21.2107 17.1585L21.1857 17.146L21.1603 17.1336L21.135 17.1217L21.1096 17.1101L21.0842 17.0986L21.0588 17.0875L21.0331 17.0766L21.0077 17.0661L20.982 17.0559L20.9563 17.0459L20.9306 17.0363L20.9049 17.0268L20.8791 17.0178L20.8533 17.0089L20.8275 17.0003L20.8018 16.9922L20.7759 16.9841L20.75 16.9764L20.7243 16.9691L20.6982 16.962L20.6725 16.9552L20.6466 16.9486L20.6207 16.9423L20.5948 16.9364L20.569 16.9306L20.5431 16.9252L20.5173 16.9201L20.4915 16.9152L20.4658 16.9106L20.4399 16.9062L20.4144 16.9022L20.3885 16.8985L20.363 16.895L20.3373 16.8917L20.3117 16.8887L20.2863 16.886L20.2607 16.8837L20.2353 16.8815L20.2099 16.8796L20.1846 16.8779L20.1593 16.8765L20.1341 16.8755L20.1091 16.8747L20.0839 16.874L20.0589 16.8737L20.0339 16.8736L20.0091 16.8738L19.9843 16.8743L19.9596 16.8749L19.935 16.8759L19.9106 16.877L19.886 16.8785L19.8617 16.8801L19.8375 16.882L19.8133 16.8842L19.7893 16.8866L19.7653 16.8892L19.7415 16.8921L19.7178 16.8952L19.6942 16.8986L19.6706 16.9022L19.6472 16.9059L19.6239 16.9099L19.6009 16.9142L19.5777 16.9187L19.5549 16.9233L19.532 16.9283L19.5094 16.9334Z" fill="#222222"/>
</svg>
