<svg width="116" height="28" viewBox="0 0 116 28" fill="none" xmlns="http://www.w3.org/2000/svg">
<g clip-path="url(#clip0_184_6933)">
<path d="M35.3867 19.2162H43.5422V16.7577H38.2854V7.49719H35.3867V19.2162Z" fill="#222222"/>
<path d="M48.3741 17.5772C47.2114 17.5772 46.6054 16.561 46.6054 15.0367C46.6054 13.5124 47.2114 12.4798 48.3741 12.4798C49.5368 12.4798 50.1591 13.5124 50.1591 15.0367C50.1591 16.561 49.5368 17.5772 48.3741 17.5772ZM48.3905 19.4784C51.0926 19.4784 52.8612 17.5608 52.8612 15.0367C52.8612 12.5126 51.0926 10.5949 48.3905 10.5949C45.7047 10.5949 43.9033 12.5126 43.9033 15.0367C43.9033 17.5608 45.7047 19.4784 48.3905 19.4784Z" fill="#222222"/>
<path d="M57.5384 22.1173C58.783 22.1173 59.8803 21.8386 60.6172 21.183C61.2886 20.5766 61.7308 19.6587 61.7308 18.3967V10.8244H59.1761V11.7259H59.1433C58.652 11.0211 57.8987 10.5786 56.7851 10.5786C54.7053 10.5786 53.2642 12.3159 53.2642 14.7745C53.2642 17.3477 55.0164 18.7573 56.8997 18.7573C57.9151 18.7573 58.5538 18.3475 59.0451 17.7903H59.1106V18.6262C59.1106 19.6424 58.6356 20.2324 57.5057 20.2324C56.6213 20.2324 56.1792 19.8554 56.0318 19.4129H53.4443C53.7063 21.1667 55.2293 22.1173 57.5384 22.1173ZM57.522 16.7741C56.5231 16.7741 55.868 15.9546 55.868 14.6925C55.868 13.4141 56.5231 12.5946 57.522 12.5946C58.6356 12.5946 59.2252 13.5452 59.2252 14.6761C59.2252 15.8562 58.6848 16.7741 57.522 16.7741Z" fill="#222222"/>
<path d="M66.984 17.5772C65.8212 17.5772 65.2153 16.561 65.2153 15.0367C65.2153 13.5124 65.8212 12.4798 66.984 12.4798C68.1467 12.4798 68.769 13.5124 68.769 15.0367C68.769 16.561 68.1467 17.5772 66.984 17.5772ZM67.0003 19.4784C69.7025 19.4784 71.4711 17.5608 71.4711 15.0367C71.4711 12.5126 69.7025 10.5949 67.0003 10.5949C64.3146 10.5949 62.5132 12.5126 62.5132 15.0367C62.5132 17.5608 64.3146 19.4784 67.0003 19.4784Z" fill="#222222"/>
<path d="M72.2505 19.2162H74.9198V10.8244H72.2505V19.2162ZM72.2505 9.6607H74.9198V7.49719H72.2505V9.6607Z" fill="#222222"/>
<path d="M76.0781 21.9862H78.7475V18.3475H78.7802C79.3043 19.0523 80.074 19.4785 81.1548 19.4785C83.3493 19.4785 84.8068 17.7411 84.8068 15.0203C84.8068 12.4962 83.4475 10.5786 81.2203 10.5786C80.074 10.5786 79.2552 11.0866 78.682 11.8406H78.6329V10.8244H76.0781V21.9862ZM80.467 17.4133C79.3207 17.4133 78.6656 16.479 78.6656 15.1187C78.6656 13.7583 79.2552 12.7257 80.4179 12.7257C81.5642 12.7257 82.1047 13.6763 82.1047 15.1187C82.1047 16.5446 81.4824 17.4133 80.467 17.4133Z" fill="#222222"/>
<path d="M89.1529 19.4785C91.3474 19.4785 92.9686 18.5278 92.9686 16.6921C92.9686 14.545 91.2327 14.168 89.7589 13.9222C88.6944 13.7255 87.7446 13.6435 87.7446 13.0535C87.7446 12.529 88.2522 12.2831 88.9073 12.2831C89.6442 12.2831 90.1519 12.5126 90.2502 13.2666H92.7066C92.5756 11.6111 91.2983 10.5786 88.9237 10.5786C86.9421 10.5786 85.3045 11.4964 85.3045 13.2666C85.3045 15.2334 86.8602 15.6267 88.3177 15.8726C89.4313 16.0693 90.4467 16.1512 90.4467 16.9052C90.4467 17.4461 89.939 17.7411 89.1366 17.7411C88.2522 17.7411 87.6954 17.3313 87.5972 16.4954H85.0752C85.1571 18.3475 86.6965 19.4785 89.1529 19.4785Z" fill="#222222"/>
<path d="M96.5947 19.4621C97.7575 19.4621 98.4944 19.0031 99.1003 18.1836H99.1495V19.2162H101.704V10.8244H99.0348V15.512C99.0348 16.5118 98.478 17.2002 97.561 17.2002C96.7094 17.2002 96.3 16.6921 96.3 15.7743V10.8244H93.647V16.3315C93.647 18.2 94.6623 19.4621 96.5947 19.4621Z" fill="#222222"/>
<path d="M102.865 19.2162H105.534V14.5122C105.534 13.5124 106.025 12.8076 106.861 12.8076C107.663 12.8076 108.04 13.3321 108.04 14.2336V19.2162H110.709V14.5122C110.709 13.5124 111.184 12.8076 112.036 12.8076C112.838 12.8076 113.215 13.3321 113.215 14.2336V19.2162H115.884V13.7583C115.884 11.8734 114.934 10.5786 113.035 10.5786C111.954 10.5786 111.053 11.0375 110.398 12.0537H110.365C109.939 11.1522 109.104 10.5786 108.007 10.5786C106.795 10.5786 105.993 11.1522 105.469 12.0209H105.419V10.8244H102.865V19.2162Z" fill="#222222"/>
<path fill-rule="evenodd" clip-rule="evenodd" d="M14.1139 27.4113C21.6509 27.4113 27.7609 21.2962 27.7609 13.7528C27.7609 6.20938 21.6509 0.0942383 14.1139 0.0942383C6.57678 0.0942383 0.466797 6.20938 0.466797 13.7528C0.466797 21.2962 6.57678 27.4113 14.1139 27.4113ZM18.3713 6.45696C18.5785 5.72022 17.8641 5.28457 17.2118 5.74976L8.10445 12.2432C7.39692 12.7477 7.50821 13.7528 8.27163 13.7528H10.6698V13.7342H15.3438L11.5354 15.0791L9.85646 21.0486C9.64923 21.7853 10.3635 22.221 11.016 21.7558L20.1233 15.2624C20.8308 14.7579 20.7195 13.7528 19.9561 13.7528H16.3193L18.3713 6.45696Z" fill="#222222"/>
</g>
<defs>
<clipPath id="clip0_184_6933">
<rect width="116" height="28" fill="white"/>
</clipPath>
</defs>
</svg>
