<svg width="210" height="36" viewBox="0 0 210 36" fill="none" xmlns="http://www.w3.org/2000/svg">
<path d="M12.7281 0.504083C15.3326 0.504083 17.587 0.938157 19.4913 1.8063C21.4236 2.67445 22.9079 3.90666 23.944 5.50292C24.9802 7.09919 25.4983 8.98951 25.4983 11.1739C25.4983 13.3302 24.9802 15.2206 23.944 16.8448C22.9079 18.4411 21.4236 19.6733 19.4913 20.5415C17.587 21.3816 15.3326 21.8017 12.7281 21.8017H6.80514V29.909H0V0.504083H12.7281ZM12.3501 16.2567C14.3944 16.2567 15.9487 15.8227 17.0129 14.9545C18.077 14.0584 18.6091 12.7982 18.6091 11.1739C18.6091 9.5216 18.077 8.26139 17.0129 7.39324C15.9487 6.49709 14.3944 6.04902 12.3501 6.04902H6.80514V16.2567H12.3501Z" fill="black"/>
<path d="M54.6194 0.504083L42.1013 23.776C40.8971 26.0164 39.4408 27.7107 37.7325 28.8589C36.0522 30.007 34.2179 30.5811 32.2296 30.5811C30.6893 30.5811 29.0931 30.2451 27.4408 29.573L29.0791 24.4061C30.2553 24.7702 31.2354 24.9522 32.0196 24.9522C32.8597 24.9522 33.6158 24.7562 34.2879 24.3641C34.96 23.944 35.5762 23.2999 36.1362 22.4318L36.3883 22.0957L24.7943 0.504083H32.0616L39.8749 16.2987L47.9402 0.504083H54.6194Z" fill="black"/>
<path d="M86.4299 24.3641V36.0001H80.1288V29.909H59.3773V36.0001H53.0763L53.1183 24.3641H54.2945C56.0588 24.3081 57.305 23.0199 58.0331 20.4994C58.7612 17.979 59.2093 14.3804 59.3773 9.70363L59.7134 0.504083H82.3132V24.3641H86.4299ZM65.3843 10.3337C65.2443 13.8343 64.9502 16.7748 64.5022 19.1552C64.0541 21.5076 63.368 23.2439 62.4438 24.3641H75.592V6.04902H65.5103L65.3843 10.3337Z" fill="black"/>
<path d="M116.719 0.504083V29.909H109.914V17.853H96.5559V29.909H89.7507V0.504083H96.5559V12.098H109.914V0.504083H116.719Z" fill="black"/>
<path d="M145.594 24.4481V29.909H122.826V0.504083H145.048V5.965H129.589V12.3501H143.242V17.643H129.589V24.4481H145.594Z" fill="black"/>
<path d="M170.204 14.5765C171.996 15.1085 173.369 15.9767 174.321 17.1809C175.273 18.3851 175.749 19.8693 175.749 21.6336C175.749 24.2381 174.755 26.2684 172.767 27.7247C170.806 29.1809 167.992 29.909 164.323 29.909H149.831V0.504083H163.525C166.942 0.504083 169.602 1.16219 171.506 2.47841C173.411 3.79464 174.363 5.67095 174.363 8.10736C174.363 9.56361 173.999 10.8518 173.271 11.972C172.542 13.0642 171.52 13.9323 170.204 14.5765ZM156.594 12.6861H162.937C164.421 12.6861 165.541 12.3921 166.297 11.804C167.054 11.1879 167.432 10.2917 167.432 9.11553C167.432 7.96734 167.04 7.08519 166.255 6.46909C165.499 5.85298 164.393 5.54493 162.937 5.54493H156.594V12.6861ZM164.071 24.8682C167.264 24.8682 168.86 23.608 168.86 21.0875C168.86 18.6511 167.264 17.4329 164.071 17.4329H156.594V24.8682H164.071Z" fill="black"/>
<path d="M193.901 30.4131C190.848 30.4131 188.09 29.755 185.626 28.4388C183.189 27.1226 181.271 25.3163 179.871 23.0199C178.498 20.6955 177.812 18.091 177.812 15.2066C177.812 12.3221 178.498 9.73164 179.871 7.43525C181.271 5.11086 183.189 3.29055 185.626 1.97433C188.09 0.658111 190.848 0 193.901 0C196.954 0 199.698 0.658111 202.134 1.97433C204.571 3.29055 206.489 5.11086 207.889 7.43525C209.29 9.73164 209.99 12.3221 209.99 15.2066C209.99 18.091 209.29 20.6955 207.889 23.0199C206.489 25.3163 204.571 27.1226 202.134 28.4388C199.698 29.755 196.954 30.4131 193.901 30.4131ZM193.901 24.6161C195.637 24.6161 197.206 24.2241 198.606 23.4399C200.006 22.6278 201.098 21.5076 201.882 20.0794C202.694 18.6511 203.101 17.0269 203.101 15.2066C203.101 13.3863 202.694 11.762 201.882 10.3337C201.098 8.9055 200.006 7.79931 198.606 7.01518C197.206 6.20304 195.637 5.79698 193.901 5.79698C192.165 5.79698 190.596 6.20304 189.196 7.01518C187.796 7.79931 186.69 8.9055 185.878 10.3337C185.094 11.762 184.701 13.3863 184.701 15.2066C184.701 17.0269 185.094 18.6511 185.878 20.0794C186.69 21.5076 187.796 22.6278 189.196 23.4399C190.596 24.2241 192.165 24.6161 193.901 24.6161Z" fill="black"/>
</svg>
