<?xml version="1.0" standalone="no"?>
<!DOCTYPE svg PUBLIC "-//W3C//DTD SVG 20010904//EN"
 "http://www.w3.org/TR/2001/REC-SVG-20010904/DTD/svg10.dtd">
<svg version="1.0" xmlns="http://www.w3.org/2000/svg"
 width="512.000000pt" height="512.000000pt" viewBox="0 0 512.000000 512.000000"
 preserveAspectRatio="xMidYMid meet">

<g transform="translate(0.000000,512.000000) scale(0.100000,-0.100000)"
fill="#000000" stroke="none">
<path d="M2460 4994 c-61 -22 -124 -69 -156 -115 -31 -45 -51 -101 -320 -886
l-199 -582 -70 -5 c-38 -3 -379 -10 -756 -16 -747 -11 -746 -11 -827 -70 -147
-106 -174 -320 -57 -458 15 -18 291 -231 614 -474 322 -242 592 -446 599 -452
10 -10 -32 -157 -208 -732 -218 -708 -221 -720 -217 -794 4 -84 26 -137 83
-200 77 -85 215 -121 324 -83 39 13 231 142 673 452 l618 433 615 -431 c338
-237 634 -439 657 -449 27 -11 69 -17 117 -17 62 0 85 5 132 28 105 51 168
146 176 263 4 69 -1 86 -217 794 -177 578 -219 726 -209 735 7 7 270 205 583
440 314 235 587 444 608 464 139 132 122 367 -35 481 -81 59 -80 59 -827 70
-377 6 -717 13 -756 16 l-70 5 -235 686 c-129 378 -245 708 -256 733 -28 60
-81 113 -147 147 -66 33 -170 41 -237 17z m193 -177 c21 -16 42 -46 55 -79 12
-29 130 -368 262 -753 162 -472 247 -705 260 -716 25 -22 117 -25 954 -39 703
-11 689 -10 739 -69 47 -56 46 -146 -3 -198 -11 -12 -293 -228 -627 -479 -335
-251 -616 -465 -625 -476 -10 -11 -18 -33 -18 -49 0 -16 101 -359 225 -763
124 -405 225 -752 225 -771 0 -97 -103 -176 -195 -148 -17 6 -320 212 -671
459 -548 385 -644 449 -674 449 -30 0 -127 -65 -679 -452 -436 -307 -654 -455
-678 -459 -46 -9 -104 9 -138 43 -33 34 -45 63 -45 109 0 19 101 366 225 770
124 404 225 747 225 763 0 16 -8 38 -17 49 -10 11 -295 228 -633 482 -338 254
-620 470 -627 479 -42 54 -40 140 4 192 50 59 36 57 729 69 836 13 939 17 964
39 13 11 103 257 274 755 140 406 263 750 273 764 49 66 150 80 216 29z"/>
</g>
</svg>
