<svg width="39" height="40" viewBox="0 0 39 40" fill="none" xmlns="http://www.w3.org/2000/svg">
<path d="M30.85 1.03516C29.0765 1.03516 26.3868 1.25369 24.1259 2.16985C22.4616 2.86748 20.8478 4.10304 19.6039 5.28817C18.3683 4.10304 16.805 2.86748 15.0819 2.16985C12.8797 1.25369 10.1312 1.03516 8.40819 1.03516H5.5V30.6214H8.40819V3.94335C9.91271 3.94335 12.2241 4.15347 14.006 4.85951C16.4267 5.8261 18.8474 8.51576 19.6039 9.48235C20.3603 8.51576 22.781 5.87654 25.2017 4.85951C26.9752 4.15347 29.2866 3.94335 30.7996 3.94335V30.6214H33.7078V1.03516H30.7996H30.85Z" fill="#010205"/>
<path d="M19.669 12.6008C18.3746 10.718 15.4159 7.75941 12.9953 6.79281C12.2976 6.52385 11.4319 6.30531 10.625 6.25488V30.6803H13.5332V10.5079C16.0043 12.0124 18.1056 14.971 19.669 17.2825C21.2323 15.0215 23.3252 12.0124 25.8047 10.5079V30.6803H28.7129V6.25488C27.906 6.36415 27.0487 6.52385 26.3427 6.79281C23.922 7.75941 20.9634 10.718 19.7278 12.6008" fill="#010205"/>
<path d="M35.9061 1.03578V32.7737H24.8786C22.6764 32.7737 20.8441 33.6899 19.6085 35.144C18.4234 33.6899 16.5406 32.7737 14.3385 32.7737H3.36131V0.985352H0.453125V35.6231H14.3301C16.5322 35.6231 18.146 37.136 18.146 39.2289H21.0542C21.0542 37.136 22.668 35.6231 24.8701 35.6231H38.7471V0.985352H35.8977V1.03578H35.9061Z" fill="#010205"/>
</svg>
