<svg width="20" height="20" viewBox="0 0 20 20" fill="none" xmlns="http://www.w3.org/2000/svg">
<g clip-path="url(#clip0_184_7296)">
<path d="M4.16667 3.33325H7.5L9.16667 7.49992L7.08333 8.74992C7.9758 10.5595 9.44039 12.0241 11.25 12.9166L12.5 10.8333L16.6667 12.4999V15.8333C16.6667 16.2753 16.4911 16.6992 16.1785 17.0118C15.8659 17.3243 15.442 17.4999 15 17.4999C11.7494 17.3024 8.68346 15.922 6.38069 13.6192C4.07792 11.3165 2.69754 8.25053 2.5 4.99992C2.5 4.55789 2.67559 4.13397 2.98816 3.82141C3.30072 3.50885 3.72464 3.33325 4.16667 3.33325Z" fill="#192031"/>
<path d="M12.5 5.83325C12.942 5.83325 13.366 6.00885 13.6785 6.32141C13.9911 6.63397 14.1667 7.05789 14.1667 7.49992" stroke="black" stroke-width="1.25" stroke-linecap="round" stroke-linejoin="round"/>
<path d="M12.5 2.5C13.8261 2.5 15.0979 3.02678 16.0355 3.96447C16.9732 4.90215 17.5 6.17392 17.5 7.5" stroke="black" stroke-width="1.25" stroke-linecap="round" stroke-linejoin="round"/>
</g>
<defs>
<clipPath id="clip0_184_7296">
<rect width="20" height="20" fill="white"/>
</clipPath>
</defs>
</svg>
