<svg width="60" height="60" viewBox="0 0 60 60" fill="none" xmlns="http://www.w3.org/2000/svg">
<path d="M47.1631 0.0263672C44.4465 0.076993 40.2085 0.397623 36.7563 1.81515C34.1484 2.88673 31.6909 4.86113 29.76 6.72585C27.8291 4.86113 25.3715 2.88673 22.7719 1.81515C19.3197 0.397623 15.0901 0.076993 12.3735 0.0348048H7.89315V46.4502H12.3735V4.55738C14.7223 4.59956 18.3167 4.86957 21.0834 6.00021C24.87 7.55274 28.573 11.7547 29.76 13.2397C30.9553 11.7547 34.6583 7.55274 38.4448 6.00021C41.2116 4.86113 44.8059 4.59113 47.1631 4.55738V46.4418H51.6518V0.0263672H47.1631Z" fill="black"/>
<path d="M29.7444 18.1489C27.7717 15.1789 23.1576 10.5213 19.4212 9.01095C18.3011 8.55532 17.0139 8.28532 15.7182 8.125L15.735 46.4319H20.2153V14.7992C24.0353 17.1701 27.3036 21.8362 29.7444 25.4137C32.1852 21.8362 35.4452 17.1701 39.2652 14.7992V46.4319H43.7455L43.7623 8.125C42.4666 8.28532 41.1794 8.55532 40.0593 9.01095C36.3229 10.5297 31.7171 15.1873 29.7444 18.1489Z" fill="black"/>
<path d="M55.0348 0.0253129V49.8411H37.9242C34.5305 49.8411 31.6216 51.2671 29.7409 53.5705C27.8601 51.2671 24.9512 49.8411 21.5575 49.8411H4.47199V0H0V54.3552H21.5575C25.0014 54.3552 27.5007 56.7346 27.5007 60H31.981C31.981 56.7262 34.4803 54.3552 37.9242 54.3552H59.465V0.0253129H55.0265H55.0348Z" fill="black"/>
</svg>
