<svg width="108" height="20" viewBox="0 0 108 20" fill="none" xmlns="http://www.w3.org/2000/svg">
<g clip-path="url(#clip0_184_6909)">
<path d="M26.1904 0.849792H28.8619V15.3758H33.2576V17.7969H26.1904V0.849792Z" fill="#222222"/>
<path d="M38.3052 18.0389C36.9938 18.0389 35.99 17.6677 35.2938 16.9253C34.5976 16.1828 34.2495 15.1337 34.2495 13.7779V4.86865C34.2495 3.51288 34.5976 2.46377 35.2938 1.72133C35.99 0.978887 36.9938 0.607666 38.3052 0.607666C39.6166 0.607666 40.6204 0.978887 41.3167 1.72133C42.0128 2.46377 42.3609 3.51288 42.3609 4.86865V13.7779C42.3609 15.1337 42.0128 16.1828 41.3167 16.9253C40.6204 17.6677 39.6166 18.0389 38.3052 18.0389ZM38.3052 15.6179C39.2281 15.6179 39.6895 15.0611 39.6895 13.9474V4.69917C39.6895 3.58551 39.2281 3.02867 38.3052 3.02867C37.3823 3.02867 36.9209 3.58551 36.9209 4.69917V13.9474C36.9209 15.0611 37.3823 15.6179 38.3052 15.6179Z" fill="#222222"/>
<path d="M47.9565 18.0389C46.6613 18.0389 45.6737 17.6758 44.9936 16.9495C44.3136 16.2071 43.9736 15.1499 43.9736 13.7779V4.86865C43.9736 3.49674 44.3136 2.44763 44.9936 1.72133C45.6737 0.978887 46.6613 0.607666 47.9565 0.607666C49.2517 0.607666 50.2394 0.978887 50.9193 1.72133C51.5994 2.44763 51.9394 3.49674 51.9394 4.86865V6.32125H49.4136V4.69917C49.4136 3.58551 48.9522 3.02867 48.0293 3.02867C47.1065 3.02867 46.6451 3.58551 46.6451 4.69917V13.9717C46.6451 15.0692 47.1065 15.6179 48.0293 15.6179C48.9522 15.6179 49.4136 15.0692 49.4136 13.9717V10.6549H48.078V8.23387H51.9394V13.7779C51.9394 15.1499 51.5994 16.2071 50.9193 16.9495C50.2394 17.6758 49.2517 18.0389 47.9565 18.0389Z" fill="#222222"/>
<path d="M57.5157 18.0389C56.2042 18.0389 55.2004 17.6677 54.5043 16.9253C53.808 16.1828 53.46 15.1337 53.46 13.7779V4.86865C53.46 3.51288 53.808 2.46377 54.5043 1.72133C55.2004 0.978887 56.2042 0.607666 57.5157 0.607666C58.8271 0.607666 59.8309 0.978887 60.5271 1.72133C61.2233 2.46377 61.5714 3.51288 61.5714 4.86865V13.7779C61.5714 15.1337 61.2233 16.1828 60.5271 16.9253C59.8309 17.6677 58.8271 18.0389 57.5157 18.0389ZM57.5157 15.6179C58.4385 15.6179 58.9 15.0611 58.9 13.9474V4.69917C58.9 3.58551 58.4385 3.02867 57.5157 3.02867C56.5929 3.02867 56.1314 3.58551 56.1314 4.69917V13.9474C56.1314 15.0611 56.5929 15.6179 57.5157 15.6179Z" fill="#222222"/>
<path d="M63.3833 0.849792H66.0548V17.7969H63.3833V0.849792Z" fill="#222222"/>
<path d="M68.0552 0.849792H71.9894C73.3169 0.849792 74.3127 1.20487 74.9767 1.91504C75.6408 2.6252 75.9725 3.66623 75.9725 5.03814V6.70863C75.9725 8.08056 75.6408 9.12156 74.9767 9.83176C74.3127 10.5419 73.3169 10.897 71.9894 10.897H70.7268V17.7969H68.0552V0.849792ZM71.9894 8.47596C72.4268 8.47596 72.7505 8.35489 72.9611 8.11283C73.1878 7.87069 73.3009 7.45916 73.3009 6.87809V4.86867C73.3009 4.28763 73.1878 3.87605 72.9611 3.63395C72.7505 3.39185 72.4268 3.27081 71.9894 3.27081H70.7268V8.47596H71.9894Z" fill="#222222"/>
<path d="M80.9909 18.0389C79.6962 18.0389 78.7165 17.6758 78.0524 16.9495C77.389 16.2071 77.0566 15.1499 77.0566 13.7779V12.8095H79.5825V13.9717C79.5825 15.0692 80.0439 15.6179 80.9668 15.6179C81.4202 15.6179 81.76 15.4888 81.9867 15.2306C82.2294 14.9562 82.3511 14.5204 82.3511 13.9232C82.3511 13.2131 82.1893 12.5917 81.8656 12.0591C81.5419 11.5103 80.9427 10.8566 80.068 10.098C78.9673 9.1296 78.1982 8.25807 77.7608 7.48333C77.3241 6.69247 77.1055 5.80477 77.1055 4.82023C77.1055 3.4806 77.4452 2.44763 78.1253 1.72133C78.8054 0.978887 79.7932 0.607666 81.0885 0.607666C82.3672 0.607666 83.3309 0.978887 83.9782 1.72133C84.6423 2.44763 84.974 3.49674 84.974 4.86865V5.57074H82.4481V4.69917C82.4481 4.11813 82.3351 3.69849 82.1084 3.44025C81.8817 3.16587 81.55 3.02867 81.1126 3.02867C80.2218 3.02867 79.7771 3.56937 79.7771 4.65075C79.7771 5.26407 79.939 5.83705 80.2626 6.36967C80.6024 6.90227 81.2096 7.54787 82.0843 8.30647C83.2011 9.27487 83.9702 10.1545 84.3915 10.9454C84.8121 11.7363 85.0228 12.6643 85.0228 13.7295C85.0228 15.1176 84.6744 16.1828 83.9782 16.9253C83.2981 17.6677 82.3023 18.0389 80.9909 18.0389Z" fill="#222222"/>
<path d="M90.4406 18.039C89.1452 18.039 88.1575 17.6758 87.4774 16.9495C86.7972 16.2071 86.4575 15.1499 86.4575 13.778V0.849792H89.1292V13.9717C89.1292 14.5527 89.2422 14.9724 89.4689 15.2306C89.7117 15.4888 90.0521 15.618 90.4887 15.618C90.9261 15.618 91.2578 15.4888 91.4845 15.2306C91.7273 14.9724 91.849 14.5527 91.849 13.9717V0.849792H94.423V13.778C94.423 15.1499 94.0833 16.2071 93.4032 16.9495C92.723 17.6758 91.7353 18.039 90.4406 18.039Z" fill="#222222"/>
<path d="M96.3252 0.849792H100.138L101.838 12.979H101.887L103.587 0.849792H107.4V17.7969H104.874V4.96551H104.826L102.882 17.7969H100.648L98.7053 4.96551H98.6571V17.7969H96.3252V0.849792Z" fill="#222222"/>
<path d="M0.399902 17.7969C3.68646 17.7969 6.35071 15.1409 6.35071 11.8646C6.35071 8.58828 3.68646 5.93231 0.399902 5.93231V10.0849C1.38586 10.0849 2.18514 10.8817 2.18514 11.8646C2.18514 12.8475 1.38586 13.6443 0.399902 13.6443V17.7969Z" fill="#222222"/>
<path d="M20.2358 7.90974C19.2189 7.58861 18.136 7.41534 17.0124 7.41534C11.124 7.41534 6.35059 12.174 6.35059 18.044C6.35059 18.6332 6.39868 19.2112 6.49114 19.7743H13.1157C12.8792 19.2457 12.7478 18.6602 12.7478 18.044C12.7478 15.696 14.6571 13.7925 17.0124 13.7925C18.2998 13.7925 19.4538 14.3611 20.2358 15.2601V7.90974Z" fill="#222222"/>
<path d="M1.44629 0C1.93965 4.44916 5.72347 7.90973 10.3181 7.90973C14.9126 7.90973 18.6964 4.44916 19.1898 0H12.8062C12.4121 0.984867 11.4466 1.68081 10.3181 1.68081C9.18947 1.68081 8.224 0.984867 7.82984 0H1.44629Z" fill="#222222"/>
</g>
<defs>
<clipPath id="clip0_184_6909">
<rect width="107" height="20" fill="white" transform="translate(0.399902)"/>
</clipPath>
</defs>
</svg>
